<?xml version="1.0" encoding="utf-8"?>
<svg xmlns="http://www.w3.org/2000/svg" viewBox="0 0 500 500" xmlns:bx="https://boxy-svg.com">
  <defs>
    <linearGradient gradientUnits="userSpaceOnUse" x1="62.873" y1="295.141" x2="62.873" y2="309.068" id="gradient-0" gradientTransform="matrix(-0.739185, -0.834949, 0.327812, -0.445665, 10.498023, 487.625504)" spreadMethod="pad">
      <stop offset="0" style="stop-color: rgb(68, 0, 255);"/>
      <stop offset="1" style="stop-color: rgb(255, 157, 16);"/>
    </linearGradient>
    <linearGradient gradientUnits="userSpaceOnUse" x1="399.581" y1="157.407" x2="399.581" y2="247.156" id="gradient-8" gradientTransform="matrix(-0.839172, -0.35027, -1.160317, 1.815596, 955.133039, -77.665002)">
      <stop offset="0" style="stop-color: rgb(100% 0% 0%)"/>
      <stop offset="1" style="stop-color: rgb(255, 194, 0);"/>
    </linearGradient>
    <linearGradient gradientUnits="userSpaceOnUse" x1="399.581" y1="157.407" x2="399.581" y2="247.156" id="gradient-1" gradientTransform="matrix(1.022823, 0.356746, -0.947201, 1.896699, 92.287379, -406.54061)">
      <stop offset="0" style="stop-color: rgb(100% 0% 0%)"/>
      <stop offset="1" style="stop-color: rgb(255, 194, 0);"/>
    </linearGradient>
    <linearGradient gradientUnits="userSpaceOnUse" x1="399.581" y1="157.407" x2="399.581" y2="247.156" id="gradient-2" gradientTransform="matrix(1.043131, 0.315001, -0.831436, 1.93264, -24.360596, -417.196531)">
      <stop offset="0" style="stop-color: rgb(100% 0% 0%)"/>
      <stop offset="1" style="stop-color: rgb(255, 194, 0);"/>
    </linearGradient>
    <linearGradient gradientUnits="userSpaceOnUse" x1="399.581" y1="157.407" x2="399.581" y2="247.156" id="gradient-4" gradientTransform="matrix(-0.839172, -0.35027, -1.160317, 1.815596, 976.824165, 122.230142)">
      <stop offset="0" style="stop-color: rgb(100% 0% 0%)"/>
      <stop offset="1" style="stop-color: rgb(255, 194, 0);"/>
    </linearGradient>
    <linearGradient gradientUnits="userSpaceOnUse" x1="399.581" y1="157.407" x2="399.581" y2="247.156" id="gradient-5" gradientTransform="matrix(0.790967, 0.307594, -1.060879, 1.855727, 358.526339, -111.882037)">
      <stop offset="0" style="stop-color: rgb(100% 0% 0%)"/>
      <stop offset="1" style="stop-color: rgb(255, 194, 0);"/>
    </linearGradient>
    <linearGradient gradientUnits="userSpaceOnUse" x1="399.581" y1="157.407" x2="399.581" y2="247.156" id="gradient-6" gradientTransform="matrix(1.043131, 0.315001, -0.831436, 1.93264, -117.176289, -412.983344)">
      <stop offset="0" style="stop-color: rgb(100% 0% 0%)"/>
      <stop offset="1" style="stop-color: rgb(255, 194, 0);"/>
    </linearGradient>
    <bx:export>
      <bx:file format="svg" path="Rapidfire.svg"/>
    </bx:export>
  </defs>
  <path style="stroke-width: 0.15; paint-order: fill; fill: url(&quot;#gradient-8&quot;); transform-origin: 323.618px 297.396px;" d="M 383.308 219.412 C 383.308 219.412 392.606 205.997 396.662 197.51 C 400.715 189.03 399.073 192.129 402.412 184.094 C 405.755 176.053 403.391 180.154 404.264 177.649 C 405.142 175.146 401.161 184.583 398.694 188.646 C 396.231 192.701 391.651 198.194 391.495 198.039 C 391.339 197.878 390.017 199.05 389.517 199.264 C 389.02 199.474 389.087 199.767 388.146 199.527 C 387.211 199.291 386.521 198.588 386.53 198.384 C 386.539 198.179 386.263 196.432 386.306 196.318 C 386.35 196.201 387.06 192.259 387.068 192.195 C 387.079 192.137 387.95 189.603 387.993 189.489 C 388.032 189.374 389.126 186.671 389.202 186.474 C 389.284 186.279 390.697 183.473 390.808 183.23 C 390.924 182.981 391.846 181.223 392.159 180.636 C 392.48 180.044 393.826 177.577 394.134 177.049 C 394.44 176.521 395.857 174.212 396.14 173.773 C 396.42 173.329 400.169 168.277 400.89 167.28 C 401.605 166.284 405.638 162.004 405.854 161.79 C 406.073 161.579 408.321 159.494 408.687 159.082 C 409.046 158.672 410.75 156.787 411.033 156.474 C 411.313 156.161 417.197 149.397 417.934 148.458 C 418.673 147.517 420.652 144.897 421.583 143.565 C 422.516 142.232 424.341 139.549 425.091 138.377 C 425.841 137.204 426.497 136.05 427.158 135.018 C 427.814 133.986 429.066 132.07 429.73 130.864 C 430.393 129.656 431.755 127.311 432.113 126.571 C 432.475 125.829 434.962 120.87 435.176 120.363 C 435.389 119.854 436.58 116.493 436.58 116.493 C 436.58 116.493 433.71 122.008 433.531 122.294 C 433.355 122.57 431.053 126.007 430.33 126.957 C 429.615 127.906 427.93 130.111 427.248 130.958 C 426.573 131.805 424.965 133.808 424.015 134.775 C 423.064 135.747 420.643 137.647 420.442 137.74 C 420.248 137.833 419.147 138.567 418.914 138.588 C 418.679 138.61 417.714 138.322 417.588 138.214 C 417.463 138.106 417.14 137.372 417.036 137.273 C 416.939 137.171 416.588 136.429 416.556 136.179 C 416.521 135.928 416.624 134.304 416.688 134.039 C 416.753 133.763 417.112 133.025 417.443 132.211 C 417.769 131.397 417.689 131.483 418.081 130.696 C 418.476 129.908 418.697 129.346 419.089 128.557 C 419.486 127.77 419.567 127.511 420.144 126.565 C 420.722 125.619 421.141 124.96 421.532 124.353 C 421.922 123.743 422.171 123.312 422.767 122.551 C 423.361 121.789 423.735 121.291 424.235 120.726 C 424.729 120.165 424.919 120.002 425.39 119.43 C 425.869 118.855 427.215 117.393 427.756 116.848 C 428.299 116.302 430.638 114.14 431.061 113.55 C 431.486 112.955 439.339 104.532 439.834 104.019 C 440.325 103.505 446.11 97.761 446.698 97.028 C 447.285 96.295 450.927 91.71 451.29 91.138 C 451.653 90.573 456.298 83.381 456.558 82.861 C 456.811 82.35 458.624 78.442 458.685 78.31 C 458.734 78.186 459.123 77.324 459.123 77.324 C 459.123 77.324 457.629 79.666 457.336 80.159 C 457.038 80.663 454.936 83.728 454.249 84.733 C 453.567 85.729 449.069 91.496 448.606 92.071 C 448.143 92.65 446.32 94.612 445.579 95.325 C 444.838 96.043 443.105 97.528 442.569 98.027 C 442.038 98.525 441.625 98.919 440.103 100.332 C 438.584 101.746 435.697 104.292 434.48 105.269 C 433.257 106.248 427.297 111.721 426.759 112.266 C 426.221 112.811 417.999 122.52 417.944 122.603 C 417.894 122.685 414.295 128.054 414.159 128.26 C 414.03 128.464 410.197 134.763 410.086 134.977 C 409.972 135.186 407.582 139.373 407.528 139.5 C 407.465 139.631 404.64 145.018 404.609 145.064 C 404.586 145.103 398.716 155.997 398.716 155.997 C 398.716 155.997 395.838 160.904 395.458 161.462 C 395.079 162.02 391.612 167.3 391.348 167.6 C 391.082 167.904 388.932 169.781 388.775 169.915 C 388.617 170.054 387.513 170.366 387.324 170.442 C 387.132 170.515 386.342 169.413 386.341 169.31 C 386.335 169.205 387.005 166.714 386.98 166.599 C 386.957 166.487 387.774 164.98 387.953 164.592 C 388.135 164.205 390.397 159.66 390.719 159.076 C 391.043 158.494 392.693 155.846 393.105 155.199 C 393.522 154.549 395.44 151.655 395.886 150.961 C 396.32 150.277 398.972 146.504 399.165 146.122 C 399.36 145.742 402.168 141.575 402.509 141.003 C 402.854 140.427 404.863 137.053 405.171 136.467 C 405.479 135.876 406.997 132.868 407.158 132.316 C 407.321 131.767 407.445 130.122 407.445 130.122 C 407.445 130.122 406.326 133.097 406.216 133.309 C 406.107 133.519 405.061 135.339 404.623 136.133 C 404.191 136.926 403.048 139.38 401.154 141.564 C 399.261 143.754 395.994 147.931 395.869 148.088 C 395.75 148.239 393.184 150.917 392.98 151.09 C 392.776 151.256 391.04 152.897 390.709 153.118 C 390.379 153.34 389.418 154.171 389.255 154.205 C 389.088 154.238 387.78 154.92 387.757 154.912 C 387.741 154.903 387.086 154.736 387.067 154.73 C 387.049 154.721 386.945 153.442 386.847 153.406 C 386.754 153.365 386.794 151.744 386.849 151.509 C 386.905 151.275 388.069 147.962 388.222 147.615 C 388.372 147.269 389.698 144.638 390.2 143.817 C 390.698 142.997 392.613 140.155 393.354 139.179 C 394.093 138.209 394.911 137.111 395.818 135.692 C 396.726 134.275 397.306 133.287 397.88 132.395 C 398.447 131.498 399.28 130.311 399.901 129.081 C 400.524 127.853 400.938 127.048 401.447 126.031 C 401.953 125.013 402.605 123.589 402.881 122.934 C 403.161 122.279 403.812 120.96 403.977 120.515 C 404.142 120.073 404.497 119.14 404.715 118.465 C 404.939 117.785 405.479 116.01 405.548 115.681 C 405.616 115.35 405.895 113.876 405.895 113.876 C 405.895 113.876 403.843 117.787 403.674 118.129 C 403.506 118.471 400.802 123.4 400.564 123.81 C 400.324 124.228 398.559 127.393 398.121 128.084 C 397.68 128.77 393.565 134.803 393.145 135.348 C 392.728 135.892 391.183 137.709 390.749 138.202 C 390.324 138.686 387.124 142.688 386.532 143.47 C 385.94 144.248 384.143 146.836 383.59 147.629 C 383.034 148.424 381.06 151.4 380.87 151.729 C 380.681 152.063 377.843 157.399 377.725 157.655 C 377.606 157.912 377.398 158.8 377.088 159.545 C 376.78 160.288 375.679 162.603 375.27 163.508 C 374.857 164.412 374.204 165.99 373.744 167.082 C 373.283 168.17 372.733 169.48 372.482 170.095 C 372.231 170.711 371.7 171.871 371.449 172.488 C 371.197 173.108 370.551 174.526 370.133 175.327 C 369.716 176.126 369.034 177.384 368.647 178.096 C 368.263 178.809 367.627 180.03 367.01 180.955 C 366.393 181.879 366.132 182.329 365.271 183.563 C 364.412 184.796 363.831 185.527 363.21 186.194 C 362.597 186.86 361.755 187.695 360.932 188.428 C 360.107 189.162 358.58 190.212 357.898 190.647 C 357.217 191.082 356.294 191.673 355.884 191.757 C 355.472 191.844 354.59 190.962 354.45 190.699 C 354.312 190.434 354.098 188.908 354.116 188.249 C 354.134 187.59 354.633 184.922 354.805 184.018 C 354.98 183.116 358.343 175.844 358.454 175.636 C 358.564 175.427 361.005 171.828 362.06 170.366 C 363.111 168.906 363.924 167.857 365.094 166.135 C 366.262 164.421 368.012 161.866 368.553 160.909 C 369.094 159.951 369.801 158.92 370.448 157.644 C 371.094 156.378 371.229 156.279 371.803 154.93 C 372.388 153.578 372.6 153.054 372.984 152.083 C 373.368 151.114 373.397 151.023 373.92 149.651 C 374.445 148.278 374.449 148.229 374.914 146.983 C 375.374 145.742 375.775 144.674 375.972 144.139 C 376.17 143.607 377.689 140.601 378.775 138.79 C 379.858 136.984 380.134 136.437 380.555 135.892 C 380.975 135.348 382 134.34 382.754 133.42 C 383.505 132.501 383.436 132.573 384.284 131.648 C 385.14 130.717 385.599 130.298 386.042 129.866 C 386.487 129.434 386.829 129.116 387.239 128.778 C 387.645 128.432 387.773 128.385 388.079 128.097 C 388.374 127.811 388.861 127.09 388.66 127.109 C 388.456 127.127 387.195 127.881 386.683 128.233 C 386.173 128.589 383.72 129.972 382.748 130.904 C 381.776 131.832 381.413 132.246 380.547 133.117 C 379.682 133.991 379.429 134.091 378.635 135.298 C 377.84 136.501 377.491 136.975 376.823 138.132 C 376.15 139.292 375.636 140.099 374.932 141.351 C 374.23 142.592 374.074 142.838 373.52 143.89 C 372.969 144.943 372.512 145.727 372.017 146.652 C 371.521 147.575 371.381 147.874 370.736 148.989 C 370.094 150.11 370.264 149.769 369.436 151.324 C 368.605 152.878 368.739 153.083 367.338 155.424 C 365.937 157.762 365.871 157.943 364.667 159.75 C 363.467 161.556 362.59 162.371 362.394 162.6 C 362.202 162.826 361.242 164.071 360.957 164.412 C 360.661 164.754 360.043 165.572 359.526 166.124 C 359.005 166.683 358.885 166.937 358.288 167.505 C 357.685 168.079 357.101 168.654 356.739 168.815 C 356.376 168.971 355.469 168.949 355.362 168.958 C 355.265 168.966 354.951 168.268 354.941 168.064 C 354.933 167.852 354.743 167.26 354.843 166.843 C 354.946 166.423 355.031 166.255 355.01 165.985 C 354.988 165.721 354.969 165.61 355.053 165.287 C 355.145 164.961 355.353 163.669 355.552 163.134 C 355.752 162.602 355.74 162.546 356.058 162.009 C 356.38 161.471 356.469 161.259 356.867 160.707 C 357.269 160.153 357.284 160.054 357.701 159.512 C 358.117 158.97 358.205 158.799 358.53 158.366 C 358.852 157.937 359.125 157.694 359.217 157.474 C 359.308 157.256 359.509 156.978 358.977 157.478 C 358.446 157.977 358.413 157.961 357.895 158.464 C 357.385 158.968 357.581 158.741 356.574 159.863 C 355.572 160.988 354.773 162.196 354.346 162.683 C 353.918 163.17 353.143 164.234 352.483 165.19 C 351.826 166.146 351.657 166.484 351.292 166.946 C 350.926 167.409 350.85 167.638 350.217 168.399 C 349.588 169.163 349.63 169.179 348.767 170.261 C 347.916 171.338 347.504 171.833 346.966 172.484 C 346.435 173.134 344.949 175.083 344.748 175.255 C 344.541 175.426 344.541 175.426 344.281 175.677 C 344.031 175.93 343.961 176.006 343.707 176.209 C 343.461 176.409 343.167 176.801 342.935 176.755 C 342.702 176.708 341.734 176.815 341.418 176.789 C 341.102 176.761 340.641 176.775 340.612 176.709 C 340.583 176.648 340.327 175.973 340.278 175.597 C 340.237 175.218 340.207 175.002 340.224 174.495 C 340.239 173.991 340.126 174.096 340.237 173.474 C 340.35 172.852 340.245 172.758 340.327 172.331 C 340.413 171.901 340.439 171.861 340.683 171.144 C 340.924 170.428 340.937 170.377 341.246 169.634 C 341.551 168.89 341.455 168.898 341.917 168.065 C 342.376 167.233 342.49 167.022 342.941 166.238 C 343.393 165.451 343.85 164.667 344.217 164.052 C 344.591 163.434 344.693 163.272 345.315 162.3 C 345.939 161.324 345.688 161.529 346.527 160.442 C 347.361 159.356 347.676 159.126 348.519 157.989 C 349.362 156.853 349.424 156.724 350.384 155.481 C 351.342 154.242 354.069 151.274 355.038 150.134 C 356.003 148.995 358.16 146.765 359.475 145.005 C 360.789 143.245 360.837 143.316 362.048 141.612 C 363.254 139.91 363.114 140.162 364.183 138.454 C 365.255 136.74 368.794 131.392 369.544 130.218 C 370.294 129.042 370.779 128.319 371.313 127.259 C 371.85 126.202 372.131 125.499 372.654 124.534 C 373.171 123.571 373.529 123.052 374.103 121.747 C 374.675 120.449 375.041 119.681 375.463 118.73 C 375.881 117.773 376.102 117.354 376.313 116.616 C 376.521 115.882 376.261 116.031 375.897 116.751 C 375.529 117.471 375.619 117.407 374.806 118.863 C 373.99 120.322 373.805 120.652 372.84 122.352 C 371.869 124.054 371.61 124.458 370.918 125.502 C 370.226 126.55 369.812 127.199 369.069 128.328 C 368.324 129.453 368.102 130.023 367.245 131.105 C 366.386 132.187 366.566 132.055 365.704 133.033 C 364.843 134.01 364.949 133.948 364.084 134.714 C 363.211 135.482 363.334 135.476 362.369 136.361 C 361.403 137.237 361.31 137.458 360.618 137.681 C 359.927 137.91 359.581 138.384 359.373 138.189 C 359.161 137.999 359.203 137.709 359.09 137.404 C 358.977 137.098 358.895 136.708 359.128 136.085 C 359.357 135.463 359.756 134.805 360.561 133.396 C 361.366 131.987 361.368 132.094 362.125 130.763 C 362.875 129.436 363.154 128.888 363.901 127.609 C 364.65 126.325 364.625 126.365 365.257 125.454 C 365.892 124.535 366.078 124.205 366.623 123.612 C 367.169 123.017 367.324 122.925 367.893 122.445 C 368.46 121.965 368.647 121.891 368.913 121.589 C 369.177 121.286 369.002 121.264 368.666 121.382 C 368.328 121.503 368.508 121.367 367.966 121.808 C 367.426 122.25 366.895 122.333 366.396 122.894 C 365.889 123.462 365.479 123.697 365.31 123.885 C 365.144 124.072 364.193 125.113 363.951 125.418 C 363.703 125.725 363.418 126.07 363.079 126.596 C 362.742 127.125 361.287 129.135 360.936 129.653 C 360.578 130.173 358.227 133.704 358.017 134.034 C 357.811 134.355 357.868 134.377 357.391 135.05 C 356.912 135.727 356.588 136.308 356.226 136.874 C 355.863 137.443 355.616 138.009 355.091 138.763 C 354.561 139.517 355.261 138.526 353.817 140.644 C 352.368 142.76 352.301 142.834 351.968 143.313 C 351.643 143.789 350.305 145.798 350.025 146.091 C 349.743 146.383 349.764 146.502 349.447 146.779 C 349.126 147.053 349.182 147.079 348.882 147.26 C 348.569 147.438 348.563 147.382 348.3 147.531 C 348.041 147.679 344.261 150.616 343.554 151.246 C 342.843 151.877 342.405 152.15 341.515 153.322 C 340.626 154.487 340.058 155.23 338.637 157.2 C 337.206 159.173 336.497 160.21 335.38 161.848 C 334.263 163.486 334.271 163.539 333.167 165.085 C 332.062 166.624 331.086 167.859 330.537 168.604 C 329.99 169.352 329.936 169.329 328.947 170.76 C 327.956 172.198 325.446 175.563 324.44 177.145 C 323.426 178.727 322.654 179.792 321.434 181.847 C 320.217 183.903 318.762 186.323 317.581 188.248 C 316.404 190.166 315.935 190.895 314.693 192.84 C 313.448 194.784 311.735 197.354 310.958 198.724 C 310.176 200.095 310.038 200.494 308.112 203.44 C 306.181 206.383 306.138 206.413 304.675 208.628 C 303.211 210.843 303.118 210.952 302.196 212.321 C 301.278 213.679 301.404 213.523 300.598 214.674 C 299.792 215.826 299.339 216.46 299.039 216.853 C 298.744 217.237 368.195 243.581 368.195 243.581 L 383.308 219.412 Z"/>
  <path style="stroke-width: 0.15; paint-order: fill; fill: url(&quot;#gradient-1&quot;); transform-origin: 167.978px 238.188px;" d="M 239.16 163.471 C 239.16 163.471 245.587 148.967 251.093 141.03 C 256.6 133.1 254.714 136.107 260.325 128.934 C 265.94 121.756 263.598 125.864 265.478 123.743 C 267.357 121.619 260.811 130.083 258.59 134.24 C 256.374 138.388 254.354 144.854 254.636 144.865 C 254.925 144.874 254.765 146.487 254.941 146.959 C 255.119 147.424 254.764 147.556 255.752 148.05 C 256.737 148.542 258.001 148.582 258.205 148.451 C 258.407 148.32 260.418 147.442 260.504 147.342 C 260.587 147.243 264.077 144.353 264.133 144.309 C 264.186 144.267 266.098 142.127 266.18 142.029 C 266.267 141.931 268.18 139.54 268.319 139.368 C 268.456 139.191 270.221 136.521 270.385 136.295 C 270.547 136.067 271.623 134.366 271.979 133.793 C 272.334 133.216 273.804 130.796 274.1 130.263 C 274.403 129.734 275.652 127.361 275.88 126.9 C 276.115 126.439 278.337 120.808 278.792 119.71 C 279.252 118.614 280.457 113.262 280.507 112.985 C 280.551 112.708 280.916 109.907 281.048 109.405 C 281.185 108.911 281.771 106.602 281.871 106.22 C 281.975 105.84 284.268 97.711 284.65 96.637 C 285.029 95.561 286.157 92.616 286.789 91.172 C 287.42 89.722 288.733 86.844 289.343 85.618 C 289.954 84.396 290.622 83.244 291.16 82.165 C 291.699 81.087 292.677 79.069 293.391 77.881 C 294.109 76.694 295.439 74.338 295.916 73.641 C 296.39 72.943 299.519 68.227 299.87 67.772 C 300.223 67.317 302.734 64.456 302.734 64.456 C 302.734 64.456 299.339 69.773 299.188 70.068 C 299.042 70.356 297.333 74.019 296.928 75.09 C 296.52 76.155 295.587 78.646 295.254 79.626 C 294.919 80.602 294.135 82.918 293.893 84.154 C 293.645 85.394 293.607 88.198 293.671 88.391 C 293.729 88.582 293.843 89.777 294.008 89.95 C 294.171 90.122 295.229 90.6 295.44 90.621 C 295.651 90.64 296.659 90.413 296.842 90.422 C 297.026 90.427 298.063 90.213 298.345 90.081 C 298.629 89.952 300.216 88.892 300.439 88.684 C 300.668 88.473 301.144 87.779 301.716 87.058 C 302.296 86.337 302.271 86.446 302.769 85.699 C 303.266 84.948 303.668 84.457 304.168 83.707 C 304.664 82.959 304.865 82.745 305.381 81.776 C 305.896 80.805 306.24 80.117 306.554 79.481 C 306.874 78.845 307.119 78.413 307.43 77.543 C 307.743 76.674 307.959 76.116 308.144 75.431 C 308.33 74.752 308.346 74.524 308.561 73.855 C 308.775 73.179 309.211 71.371 309.342 70.671 C 309.475 69.97 309.845 67.059 310.117 66.412 C 310.393 65.757 312.833 55.282 312.969 54.631 C 313.107 53.984 314.437 46.547 314.722 45.7 C 315.011 44.854 316.842 39.581 317.142 38.983 C 317.436 38.392 321.147 30.847 321.477 30.352 C 321.803 29.868 324.382 26.251 324.472 26.13 C 324.558 26.02 325.137 25.229 325.137 25.229 C 325.137 25.229 323.912 27.674 323.636 28.175 C 323.356 28.684 321.868 31.983 321.381 33.066 C 320.896 34.135 318.531 40.713 318.305 41.378 C 318.077 42.046 317.501 44.483 317.357 45.422 C 317.204 46.364 317.05 48.449 316.96 49.116 C 316.869 49.781 316.791 50.301 316.544 52.201 C 316.292 54.096 315.959 57.612 315.919 59.035 C 315.88 60.464 314.971 67.855 314.835 68.554 C 314.702 69.252 311.231 80.766 311.188 80.853 C 311.143 80.937 308.475 86.659 308.37 86.878 C 308.264 87.091 304.823 93.541 304.692 93.747 C 304.567 93.951 302.157 98.132 302.071 98.245 C 301.987 98.367 298.687 103.575 298.663 103.624 C 298.641 103.664 292.096 114.302 292.096 114.302 C 292.096 114.302 289.333 119.251 289.06 119.851 C 288.785 120.45 286.104 126.029 286.004 126.392 C 285.904 126.757 285.676 129.364 285.66 129.554 C 285.642 129.745 286.197 130.685 286.266 130.862 C 286.342 131.037 288.099 130.9 288.206 130.837 C 288.318 130.78 290.346 128.803 290.484 128.75 C 290.618 128.697 291.518 127.222 291.776 126.864 C 292.029 126.504 294.909 122.192 295.253 121.617 C 295.595 121.041 297.012 118.304 297.349 117.628 C 297.686 116.949 299.143 113.879 299.504 113.154 C 299.861 112.441 301.64 108.335 301.88 107.971 C 302.116 107.607 304.177 103.155 304.493 102.573 C 304.812 101.987 306.688 98.564 307.049 97.996 C 307.409 97.427 309.3 94.56 309.74 94.113 C 310.175 93.668 311.765 92.58 311.765 92.58 C 311.765 92.58 309.594 95.155 309.464 95.36 C 309.333 95.562 308.291 97.382 307.822 98.165 C 307.349 98.943 305.736 101.218 304.988 103.837 C 304.237 106.461 302.527 111.23 302.466 111.41 C 302.405 111.585 301.683 114.963 301.668 115.207 C 301.655 115.447 301.346 117.628 301.379 117.988 C 301.413 118.349 301.317 119.508 301.411 119.641 C 301.508 119.773 301.845 121.081 301.87 121.09 C 301.894 121.097 302.58 121.438 302.602 121.447 C 302.624 121.454 304.019 120.745 304.136 120.789 C 304.251 120.828 305.884 119.811 306.081 119.631 C 306.278 119.45 308.759 116.637 308.995 116.321 C 309.234 116.009 310.885 113.501 311.331 112.658 C 311.78 111.82 313.185 108.785 313.602 107.686 C 314.014 106.59 314.494 105.363 315.234 103.882 C 315.97 102.401 316.527 101.402 316.989 100.467 C 317.462 99.535 318.023 98.245 318.794 97.073 C 319.566 95.899 320.061 95.126 320.705 94.161 C 321.348 93.195 322.298 91.883 322.751 91.295 C 323.204 90.706 324.043 89.458 324.369 89.074 C 324.693 88.692 325.37 87.882 325.89 87.322 C 326.413 86.754 327.81 85.305 328.09 85.055 C 328.379 84.809 329.671 83.72 329.671 83.72 C 329.671 83.72 327.276 87.501 327.06 87.825 C 326.84 88.147 323.916 92.992 323.681 93.405 C 323.443 93.823 321.589 96.954 321.227 97.674 C 320.868 98.391 317.928 104.869 317.699 105.489 C 317.47 106.105 316.826 108.263 316.662 108.859 C 316.501 109.443 314.922 114.061 314.586 114.94 C 314.257 115.818 313.018 118.618 312.641 119.479 C 312.267 120.343 310.768 123.5 310.581 123.829 C 310.387 124.162 307.151 129.348 306.981 129.583 C 306.81 129.821 306.064 130.505 305.546 131.171 C 305.026 131.833 303.52 133.994 302.914 134.824 C 302.311 135.657 301.209 137.064 300.449 138.042 C 299.696 139.02 298.787 140.195 298.353 140.739 C 297.919 141.285 297.145 142.355 296.711 142.902 C 296.275 143.451 295.328 144.756 294.837 145.528 C 294.345 146.299 293.593 147.532 293.168 148.228 C 292.739 148.924 291.989 150.101 291.525 151.085 C 291.065 152.069 290.809 152.522 290.222 153.859 C 289.635 155.195 289.344 156.037 289.148 156.867 C 288.952 157.69 288.758 158.771 288.656 159.779 C 288.555 160.786 288.683 162.466 288.774 163.194 C 288.868 163.924 288.99 164.911 289.228 165.241 C 289.463 165.574 291.066 165.636 291.447 165.572 C 291.83 165.503 293.563 164.716 294.227 164.302 C 294.89 163.888 297.233 161.922 298.028 161.252 C 298.815 160.584 303.623 153.859 303.749 153.657 C 303.876 153.454 305.643 149.599 306.312 147.989 C 306.979 146.384 307.416 145.192 308.257 143.345 C 309.095 141.505 310.333 138.756 310.889 137.807 C 311.446 136.853 311.945 135.744 312.744 134.525 C 313.533 133.312 313.53 133.161 314.459 131.946 C 315.386 130.724 315.759 130.261 316.45 129.406 C 317.142 128.556 317.211 128.479 318.205 127.287 C 319.2 126.091 319.249 126.059 320.16 124.983 C 321.072 123.912 321.851 122.989 322.245 122.529 C 322.635 122.069 324.52 119.2 325.521 117.359 C 326.521 115.52 326.865 114.998 327.091 114.38 C 327.319 113.763 327.543 112.451 327.891 111.376 C 328.24 110.306 328.222 110.397 328.501 109.253 C 328.781 108.105 328.849 107.537 328.943 106.972 C 329.033 106.408 329.09 105.979 329.113 105.494 C 329.148 105.009 329.095 104.893 329.149 104.51 C 329.208 104.133 329.563 103.363 329.701 103.512 C 329.845 103.66 330.07 104.978 330.113 105.54 C 330.15 106.105 330.669 108.616 330.48 109.845 C 330.297 111.072 330.156 111.571 329.947 112.694 C 329.734 113.814 329.83 114.046 329.22 115.323 C 328.611 116.597 328.399 117.123 327.739 118.284 C 327.081 119.449 326.658 120.292 325.93 121.534 C 325.209 122.768 325.08 123.024 324.437 124.043 C 323.794 125.06 323.349 125.848 322.79 126.749 C 322.235 127.65 322.04 127.927 321.401 129.048 C 320.759 130.167 320.978 129.845 320.034 131.356 C 319.092 132.868 318.778 132.902 317.481 135.284 C 316.191 137.662 316.055 137.819 315.148 139.738 C 314.244 141.657 314.101 142.75 314.021 143.023 C 313.939 143.294 313.419 144.704 313.296 145.106 C 313.176 145.517 312.827 146.436 312.668 147.123 C 312.508 147.819 312.339 148.057 312.23 148.808 C 312.117 149.569 311.988 150.315 312.11 150.66 C 312.234 151.003 312.977 151.605 313.048 151.683 C 313.117 151.754 314.083 151.542 314.299 151.425 C 314.524 151.3 315.281 151.069 315.63 150.746 C 315.981 150.419 316.087 150.258 316.379 150.108 C 316.667 149.962 316.796 149.909 317.063 149.652 C 317.325 149.393 318.486 148.463 318.876 148 C 319.266 147.54 319.335 147.514 319.633 146.97 C 319.931 146.424 320.081 146.233 320.333 145.626 C 320.583 145.014 320.671 144.944 320.9 144.33 C 321.128 143.716 321.234 143.552 321.422 143.067 C 321.607 142.587 321.639 142.253 321.794 142.055 C 321.947 141.86 322.072 141.555 321.979 142.221 C 321.887 142.887 321.932 142.899 321.824 143.558 C 321.707 144.211 321.786 143.941 321.43 145.311 C 321.068 146.678 320.457 147.958 320.294 148.544 C 320.135 149.134 319.654 150.309 319.194 151.341 C 318.732 152.372 318.517 152.693 318.333 153.222 C 318.147 153.755 317.971 153.946 317.688 154.841 C 317.402 155.734 317.354 155.715 316.923 156.963 C 316.491 158.198 316.306 158.781 316.063 159.543 C 315.818 160.301 314.989 162.499 314.971 162.742 C 314.959 162.987 314.959 162.987 314.905 163.316 C 314.846 163.641 314.824 163.736 314.814 164.032 C 314.804 164.322 314.634 164.76 314.865 164.89 C 315.097 165.02 315.752 165.744 316.028 165.942 C 316.308 166.139 316.658 166.46 316.747 166.44 C 316.832 166.423 317.729 166.186 318.154 165.989 C 318.575 165.786 318.821 165.674 319.327 165.353 C 319.833 165.036 319.816 165.177 320.365 164.722 C 320.914 164.266 321.096 164.28 321.47 163.963 C 321.842 163.641 321.864 163.601 322.404 162.996 C 322.949 162.395 322.992 162.357 323.512 161.693 C 324.034 161.031 324.1 161.1 324.592 160.28 C 325.083 159.459 325.209 159.252 325.658 158.467 C 326.109 157.68 326.553 156.89 326.894 156.268 C 327.233 155.635 327.319 155.467 327.825 154.451 C 328.333 153.432 328.322 153.728 328.776 152.494 C 329.23 151.264 329.217 150.91 329.719 149.643 C 330.221 148.377 330.304 148.256 330.82 146.843 C 331.334 145.437 332.227 141.771 332.635 140.418 C 333.041 139.067 333.626 136.239 334.393 134.271 C 335.162 132.304 335.05 132.315 335.843 130.452 C 336.637 128.595 336.488 128.842 337.4 127.073 C 338.311 125.298 341.005 119.63 341.619 118.403 C 342.233 117.177 342.591 116.405 343.258 115.395 C 343.919 114.387 344.419 113.765 344.996 112.82 C 345.577 111.882 345.827 111.322 346.713 110.136 C 347.593 108.955 348.092 108.235 348.735 107.369 C 349.387 106.501 349.645 106.095 350.235 105.502 C 350.826 104.914 350.875 105.179 350.425 105.867 C 349.978 106.556 349.971 106.457 349.118 107.897 C 348.264 109.341 348.073 109.67 347.091 111.363 C 346.109 113.062 345.899 113.483 345.375 114.592 C 344.845 115.701 344.508 116.379 343.936 117.574 C 343.367 118.766 342.958 119.265 342.524 120.507 C 342.093 121.752 342.083 121.547 341.763 122.732 C 341.44 123.913 341.418 123.803 341.317 124.858 C 341.218 125.919 341.128 125.835 340.98 127.029 C 340.845 128.22 340.691 128.419 341.009 129.025 C 341.322 129.635 341.109 130.159 341.472 130.182 C 341.835 130.209 342.097 130.004 342.502 129.895 C 342.904 129.785 343.369 129.603 343.825 129.063 C 344.285 128.529 344.645 127.856 345.454 126.449 C 346.266 125.042 346.154 125.105 346.922 123.78 C 347.691 122.461 348.034 121.934 348.755 120.647 C 349.481 119.356 349.46 119.397 349.899 118.411 C 350.338 117.417 350.532 117.09 350.708 116.358 C 350.888 115.623 350.861 115.461 350.905 114.782 C 350.949 114.105 350.875 113.932 350.977 113.566 C 351.078 113.202 351.239 113.309 351.385 113.607 C 351.528 113.912 351.525 113.705 351.5 114.345 C 351.475 114.981 351.809 115.393 351.629 116.075 C 351.443 116.766 351.528 117.187 351.467 117.416 C 351.407 117.644 351.089 118.926 350.966 119.276 C 350.845 119.632 350.721 120.036 350.448 120.589 C 350.17 121.14 349.255 123.357 349.002 123.911 C 348.749 124.471 346.983 128.225 346.81 128.568 C 346.643 128.904 346.574 128.879 346.261 129.614 C 345.944 130.352 345.605 130.928 345.308 131.518 C 345.013 132.112 344.627 132.626 344.268 133.442 C 343.909 134.263 344.375 133.182 343.344 135.456 C 342.315 137.735 342.293 137.823 342.063 138.342 C 341.832 138.855 340.824 140.988 340.745 141.358 C 340.668 141.728 340.531 141.787 340.499 142.172 C 340.468 142.556 340.397 142.534 340.45 142.849 C 340.514 143.171 340.575 143.14 340.63 143.409 C 340.684 143.677 340.655 148.036 340.567 148.904 C 340.483 149.771 340.547 150.236 340.047 151.555 C 339.553 152.872 339.238 153.711 338.341 155.88 C 337.446 158.056 336.941 159.17 336.143 160.929 C 335.343 162.689 335.282 162.714 334.568 164.408 C 333.859 166.1 333.363 167.516 333.031 168.345 C 332.697 169.172 332.762 169.197 332.075 170.741 C 331.382 172.292 329.908 176.052 329.081 177.702 C 328.257 179.355 327.774 180.53 326.629 182.615 C 325.48 184.697 324.143 187.162 323.1 189.138 C 322.061 191.109 321.685 191.874 320.667 193.903 C 319.655 195.937 318.371 198.67 317.577 200.034 C 316.79 201.401 316.489 201.74 314.986 204.847 C 313.49 207.955 313.494 208.002 312.375 210.349 C 311.258 212.695 311.219 212.825 310.542 214.286 C 309.874 215.738 309.935 215.559 309.39 216.812 C 308.843 218.06 308.55 218.755 308.385 219.198 C 308.223 219.634 226.288 188.495 226.288 188.495 L 239.16 163.471 Z"/>
  <path style="stroke-width: 0.15; paint-order: fill; fill: url(&quot;#gradient-2&quot;); transform-origin: 86.982px 222.138px;" d="M 156.776 146.19 C 156.776 146.19 162.318 131.441 167.338 123.292 C 172.358 115.149 170.656 118.23 175.827 110.837 C 181.004 103.442 178.912 107.64 180.661 105.445 C 182.411 103.25 176.383 111.968 174.417 116.208 C 172.452 120.442 170.826 126.98 171.11 126.98 C 171.397 126.977 171.335 128.596 171.541 129.059 C 171.745 129.515 171.399 129.664 172.418 130.115 C 173.43 130.568 174.694 130.556 174.89 130.417 C 175.085 130.278 177.04 129.321 177.119 129.217 C 177.198 129.114 180.507 126.088 180.561 126.04 C 180.611 125.996 182.393 123.782 182.469 123.68 C 182.55 123.58 184.317 121.113 184.445 120.937 C 184.571 120.756 186.171 118.016 186.321 117.785 C 186.469 117.55 187.441 115.808 187.761 115.223 C 188.081 114.629 189.403 112.154 189.667 111.61 C 189.936 111.068 191.04 108.648 191.242 108.18 C 191.448 107.708 193.328 101.995 193.716 100.88 C 194.108 99.767 194.99 94.373 195.02 94.094 C 195.05 93.814 195.244 91.003 195.346 90.497 C 195.453 89.999 195.901 87.669 195.977 87.282 C 196.056 86.897 197.857 78.687 198.172 77.598 C 198.486 76.508 199.433 73.522 199.978 72.054 C 200.522 70.58 201.659 67.652 202.194 66.403 C 202.73 65.159 203.328 63.982 203.799 62.882 C 204.275 61.784 205.126 59.728 205.769 58.513 C 206.415 57.298 207.601 54.891 208.035 54.177 C 208.467 53.46 211.307 48.623 211.63 48.154 C 211.954 47.686 214.289 44.725 214.289 44.725 C 214.289 44.725 211.219 50.174 211.086 50.476 C 210.96 50.769 209.474 54.496 209.133 55.582 C 208.79 56.663 208.008 59.187 207.738 60.179 C 207.459 61.169 206.817 63.513 206.65 64.758 C 206.476 66.006 206.609 68.808 206.683 68.999 C 206.752 69.186 206.941 70.375 207.114 70.541 C 207.29 70.707 208.374 71.142 208.587 71.156 C 208.797 71.165 209.79 70.896 209.976 70.898 C 210.157 70.896 211.181 70.64 211.454 70.497 C 211.731 70.356 213.253 69.233 213.461 69.019 C 213.677 68.798 214.11 68.085 214.638 67.341 C 215.175 66.599 215.157 66.708 215.609 65.941 C 216.059 65.173 216.432 64.666 216.884 63.896 C 217.336 63.129 217.522 62.906 217.979 61.918 C 218.437 60.928 218.738 60.228 219.012 59.578 C 219.295 58.93 219.514 58.49 219.771 57.608 C 220.03 56.727 220.212 56.161 220.356 55.47 C 220.5 54.783 220.503 54.556 220.677 53.879 C 220.849 53.194 221.178 51.372 221.265 50.667 C 221.355 49.961 221.55 47.04 221.781 46.382 C 222.017 45.718 223.822 35.155 223.919 34.5 C 224.017 33.849 224.896 26.366 225.131 25.509 C 225.368 24.652 226.878 19.31 227.141 18.703 C 227.399 18.1 230.65 10.414 230.949 9.907 C 231.245 9.41 233.604 5.689 233.685 5.566 C 233.764 5.455 234.293 4.644 234.293 4.644 C 234.293 4.644 233.216 7.138 232.974 7.646 C 232.724 8.166 231.439 11.52 231.017 12.621 C 230.599 13.708 228.633 20.375 228.447 21.047 C 228.26 21.724 227.833 24.181 227.743 25.124 C 227.651 26.072 227.621 28.159 227.571 28.831 C 227.521 29.497 227.475 30.022 227.342 31.928 C 227.205 33.831 227.084 37.356 227.13 38.78 C 227.177 40.208 226.717 47.627 226.624 48.33 C 226.531 49.034 223.761 60.673 223.723 60.762 C 223.683 60.848 221.365 66.672 221.272 66.893 C 221.181 67.11 218.133 73.69 218.016 73.902 C 217.903 74.112 215.749 78.384 215.67 78.502 C 215.592 78.627 212.611 83.962 212.59 84.01 C 212.571 84.051 206.676 94.942 206.676 94.942 C 206.676 94.942 204.215 99.997 203.978 100.606 C 203.742 101.217 201.402 106.895 201.323 107.262 C 201.245 107.631 201.173 110.244 201.171 110.435 C 201.166 110.627 201.775 111.542 201.855 111.715 C 201.943 111.888 203.688 111.681 203.79 111.615 C 203.899 111.552 205.807 109.495 205.94 109.436 C 206.072 109.379 206.881 107.87 207.117 107.5 C 207.348 107.132 209.963 102.709 210.272 102.119 C 210.579 101.531 211.828 98.74 212.125 98.052 C 212.42 97.359 213.69 94.235 214.005 93.496 C 214.321 92.77 215.849 88.596 216.066 88.223 C 216.28 87.849 218.07 83.32 218.35 82.726 C 218.633 82.129 220.3 78.632 220.623 78.051 C 220.952 77.469 222.668 74.528 223.077 74.064 C 223.486 73.603 225.01 72.451 225.01 72.451 C 225.01 72.451 222.996 75.112 222.878 75.32 C 222.76 75.529 221.83 77.387 221.408 78.189 C 220.984 78.986 219.51 81.322 218.921 83.967 C 218.329 86.619 216.911 91.452 216.861 91.635 C 216.809 91.81 216.294 95.214 216.292 95.458 C 216.295 95.699 216.116 97.891 216.17 98.248 C 216.227 98.606 216.202 99.768 216.303 99.897 C 216.407 100.027 216.825 101.317 216.848 101.326 C 216.873 101.331 217.579 101.645 217.601 101.653 C 217.626 101.661 218.975 100.895 219.094 100.934 C 219.211 100.968 220.78 99.886 220.967 99.698 C 221.153 99.51 223.46 96.6 223.678 96.275 C 223.895 95.952 225.395 93.382 225.791 92.523 C 226.187 91.667 227.407 88.579 227.757 87.463 C 228.1 86.352 228.507 85.108 229.155 83.6 C 229.803 82.091 230.298 81.071 230.704 80.119 C 231.12 79.168 231.602 77.857 232.303 76.654 C 233 75.452 233.449 74.659 234.033 73.669 C 234.619 72.679 235.487 71.33 235.904 70.725 C 236.323 70.117 237.083 68.837 237.387 68.441 C 237.686 68.046 238.314 67.21 238.799 66.63 C 239.286 66.041 240.593 64.537 240.86 64.276 C 241.133 64.019 242.357 62.88 242.357 62.88 C 242.357 62.88 240.194 66.752 239.997 67.085 C 239.799 67.415 237.17 72.373 236.961 72.793 C 236.747 73.222 235.087 76.424 234.768 77.156 C 234.453 77.889 231.906 84.477 231.718 85.105 C 231.525 85.729 231.01 87.91 230.883 88.513 C 230.759 89.103 229.46 93.78 229.178 94.67 C 228.902 95.562 227.834 98.408 227.508 99.282 C 227.187 100.16 225.882 103.374 225.714 103.711 C 225.541 104.051 222.623 109.36 222.467 109.602 C 222.311 109.847 221.609 110.56 221.129 111.246 C 220.651 111.929 219.276 114.148 218.721 115.001 C 218.171 115.858 217.153 117.308 216.454 118.316 C 215.76 119.322 214.924 120.531 214.523 121.093 C 214.122 121.656 213.415 122.756 213.013 123.32 C 212.613 123.886 211.745 125.226 211.301 126.018 C 210.857 126.809 210.181 128.071 209.798 128.782 C 209.411 129.495 208.733 130.701 208.33 131.702 C 207.928 132.703 207.702 133.165 207.196 134.526 C 206.69 135.884 206.45 136.737 206.306 137.572 C 206.158 138.403 206.029 139.491 205.99 140.5 C 205.95 141.512 206.18 143.184 206.314 143.909 C 206.451 144.633 206.633 145.614 206.89 145.934 C 207.146 146.257 208.749 146.254 209.126 146.174 C 209.506 146.091 211.189 145.235 211.827 144.795 C 212.463 144.353 214.685 142.295 215.438 141.595 C 216.184 140.895 220.58 133.986 220.695 133.778 C 220.811 133.571 222.341 129.648 222.912 128.014 C 223.482 126.383 223.847 125.175 224.575 123.297 C 225.298 121.423 226.369 118.63 226.868 117.657 C 227.366 116.684 227.798 115.555 228.522 114.306 C 229.236 113.062 229.225 112.911 230.08 111.661 C 230.931 110.402 231.275 109.925 231.914 109.045 C 232.554 108.166 232.619 108.088 233.541 106.856 C 234.463 105.622 234.508 105.586 235.353 104.476 C 236.198 103.371 236.922 102.417 237.287 101.941 C 237.649 101.467 239.358 98.525 240.248 96.645 C 241.135 94.768 241.446 94.234 241.635 93.606 C 241.826 92.981 241.97 91.661 242.252 90.574 C 242.536 89.491 242.525 89.582 242.733 88.43 C 242.943 87.272 242.977 86.7 243.036 86.133 C 243.093 85.565 243.124 85.135 243.118 84.651 C 243.122 84.164 243.064 84.05 243.094 83.665 C 243.128 83.285 243.437 82.502 243.587 82.646 C 243.739 82.789 244.041 84.096 244.119 84.655 C 244.193 85.217 244.861 87.705 244.746 88.941 C 244.636 90.173 244.527 90.677 244.384 91.806 C 244.24 92.934 244.351 93.163 243.818 94.461 C 243.287 95.759 243.107 96.293 242.519 97.479 C 241.93 98.67 241.558 99.528 240.908 100.799 C 240.263 102.061 240.15 102.32 239.569 103.364 C 238.987 104.407 238.591 105.211 238.085 106.135 C 237.586 107.056 237.409 107.342 236.839 108.486 C 236.265 109.63 236.463 109.299 235.612 110.846 C 234.763 112.394 234.452 112.442 233.299 114.872 C 232.154 117.301 232.029 117.462 231.239 119.417 C 230.452 121.369 230.375 122.468 230.312 122.743 C 230.247 123.016 229.814 124.445 229.714 124.852 C 229.62 125.266 229.326 126.198 229.208 126.893 C 229.09 127.594 228.936 127.839 228.871 128.592 C 228.805 129.357 228.721 130.108 228.864 130.447 C 229.01 130.785 229.786 131.357 229.862 131.431 C 229.936 131.499 230.888 131.248 231.098 131.124 C 231.314 130.988 232.057 130.727 232.386 130.391 C 232.716 130.05 232.813 129.885 233.096 129.724 C 233.374 129.567 233.502 129.507 233.75 129.242 C 233.997 128.971 235.1 127.995 235.464 127.518 C 235.823 127.041 235.889 127.013 236.155 126.458 C 236.422 125.9 236.559 125.704 236.774 125.086 C 236.986 124.466 237.07 124.393 237.26 123.77 C 237.452 123.147 237.549 122.978 237.705 122.486 C 237.861 122 237.875 121.665 238.017 121.463 C 238.157 121.261 238.266 120.95 238.211 121.619 C 238.16 122.288 238.206 122.299 238.137 122.96 C 238.06 123.619 238.123 123.346 237.85 124.728 C 237.571 126.108 237.037 127.411 236.912 128.004 C 236.788 128.598 236.377 129.791 235.981 130.84 C 235.583 131.891 235.387 132.218 235.235 132.755 C 235.081 133.294 234.917 133.493 234.689 134.397 C 234.456 135.301 234.407 135.284 234.052 136.547 C 233.697 137.799 233.546 138.387 233.351 139.16 C 233.15 139.926 232.455 142.156 232.452 142.398 C 232.455 142.645 232.455 142.645 232.422 142.975 C 232.383 143.302 232.365 143.396 232.373 143.693 C 232.382 143.983 232.236 144.428 232.477 144.549 C 232.716 144.669 233.414 145.365 233.701 145.551 C 233.993 145.738 234.363 146.044 234.449 146.021 C 234.535 146.001 235.415 145.728 235.825 145.513 C 236.236 145.293 236.474 145.172 236.96 144.831 C 237.448 144.492 237.441 144.635 237.961 144.159 C 238.48 143.681 238.662 143.686 239.016 143.356 C 239.369 143.02 239.389 142.978 239.893 142.353 C 240.399 141.73 240.442 141.69 240.919 141.005 C 241.4 140.325 241.471 140.39 241.912 139.551 C 242.353 138.711 242.468 138.501 242.868 137.699 C 243.271 136.893 243.666 136.087 243.969 135.45 C 244.27 134.805 244.346 134.634 244.789 133.598 C 245.235 132.56 245.242 132.855 245.622 131.605 C 246 130.359 245.966 130.004 246.391 128.72 C 246.814 127.433 246.89 127.31 247.322 125.878 C 247.75 124.454 248.42 120.756 248.745 119.388 C 249.07 118.022 249.482 115.175 250.131 113.178 C 250.778 111.183 250.668 111.198 251.348 109.305 C 252.029 107.417 251.894 107.671 252.697 105.867 C 253.501 104.058 255.85 98.288 256.387 97.038 C 256.928 95.786 257.239 95.003 257.845 93.966 C 258.442 92.932 258.905 92.293 259.425 91.325 C 259.948 90.364 260.164 89.793 260.975 88.574 C 261.785 87.359 262.24 86.621 262.83 85.73 C 263.428 84.836 263.661 84.421 264.214 83.804 C 264.77 83.192 264.835 83.455 264.426 84.161 C 264.02 84.867 264.009 84.768 263.245 86.242 C 262.479 87.718 262.306 88.055 261.427 89.785 C 260.549 91.522 260.366 91.95 259.909 93.079 C 259.447 94.208 259.151 94.9 258.653 96.116 C 258.157 97.33 257.778 97.844 257.42 99.103 C 257.064 100.362 257.043 100.159 256.794 101.356 C 256.541 102.547 256.515 102.438 256.478 103.497 C 256.442 104.562 256.346 104.48 256.271 105.679 C 256.209 106.874 256.067 107.078 256.419 107.671 C 256.77 108.267 256.59 108.8 256.954 108.807 C 257.318 108.82 257.567 108.605 257.964 108.48 C 258.36 108.353 258.812 108.152 259.235 107.596 C 259.662 107.044 259.981 106.356 260.705 104.918 C 261.43 103.482 261.323 103.548 262.011 102.193 C 262.698 100.845 263.008 100.306 263.652 98.99 C 264.3 97.672 264.282 97.712 264.659 96.71 C 265.037 95.702 265.211 95.366 265.344 94.627 C 265.48 93.886 265.441 93.727 265.445 93.047 C 265.448 92.367 265.364 92.197 265.442 91.829 C 265.523 91.462 265.689 91.56 265.854 91.854 C 266.013 92.15 265.997 91.946 266.012 92.585 C 266.026 93.221 266.384 93.62 266.245 94.307 C 266.102 95.005 266.212 95.423 266.164 95.655 C 266.117 95.885 265.879 97.178 265.778 97.532 C 265.678 97.892 265.578 98.303 265.34 98.864 C 265.094 99.426 264.314 101.676 264.095 102.24 C 263.877 102.81 262.339 106.63 262.187 106.981 C 262.04 107.323 261.972 107.301 261.702 108.047 C 261.43 108.797 261.126 109.387 260.866 109.987 C 260.606 110.592 260.251 111.122 259.941 111.952 C 259.636 112.786 260.034 111.687 259.141 114.001 C 258.251 116.317 258.234 116.407 258.036 116.935 C 257.836 117.456 256.959 119.628 256.905 120 C 256.849 120.373 256.715 120.436 256.704 120.822 C 256.698 121.208 256.626 121.189 256.698 121.501 C 256.781 121.819 256.839 121.786 256.913 122.052 C 256.982 122.318 257.217 126.674 257.18 127.542 C 257.149 128.414 257.241 128.875 256.82 130.213 C 256.407 131.548 256.145 132.397 255.378 134.602 C 254.616 136.811 254.18 137.943 253.487 139.734 C 252.795 141.524 252.736 141.551 252.126 143.272 C 251.52 144.989 251.109 146.424 250.829 147.264 C 250.544 148.106 250.613 148.127 250.02 149.697 C 249.419 151.274 248.176 155.089 247.449 156.769 C 246.725 158.456 246.315 159.648 245.296 161.776 C 244.276 163.902 243.088 166.418 242.166 168.435 C 241.248 170.446 240.918 171.223 240.024 173.293 C 239.138 175.364 238.019 178.146 237.309 179.539 C 236.605 180.938 236.325 181.288 235.012 184.452 C 233.704 187.616 233.711 187.663 232.737 190.052 C 231.762 192.44 231.733 192.572 231.144 194.059 C 230.563 195.536 230.614 195.355 230.145 196.627 C 229.675 197.898 228.053 193.108 227.915 193.557 C 227.78 193.997 145.432 171.7 145.432 171.7 L 156.776 146.19 Z"/>
  <path style="stroke-width: 0.15; paint-order: fill; fill: url(&quot;#gradient-4&quot;); transform-origin: 346.223px 503.769px;" d="M 405 419.305 C 405 419.305 414.296 405.892 418.354 397.405 C 422.408 388.924 420.765 392.025 424.105 383.989 C 427.445 375.948 425.084 380.048 425.955 377.544 C 426.832 375.04 422.852 384.478 420.387 388.542 C 417.923 392.596 413.342 398.088 413.187 397.933 C 413.03 397.773 411.709 398.945 411.209 399.159 C 410.711 399.368 410.779 399.661 409.838 399.422 C 408.902 399.185 408.214 398.484 408.222 398.278 C 408.231 398.074 407.956 396.328 407.998 396.212 C 408.041 396.097 408.752 392.153 408.762 392.09 C 408.771 392.032 409.642 389.497 409.686 389.383 C 409.725 389.27 410.818 386.564 410.895 386.37 C 410.977 386.174 412.389 383.368 412.501 383.124 C 412.615 382.876 413.537 381.119 413.853 380.531 C 414.171 379.938 415.516 377.471 415.825 376.945 C 416.133 376.416 417.55 374.107 417.832 373.667 C 418.113 373.222 421.862 368.173 422.583 367.175 C 423.297 366.177 427.331 361.898 427.546 361.683 C 427.765 361.474 430.013 359.39 430.379 358.977 C 430.738 358.566 432.443 356.682 432.726 356.368 C 433.005 356.055 438.89 349.291 439.626 348.351 C 440.365 347.412 442.345 344.791 443.274 343.46 C 444.21 342.126 446.034 339.442 446.784 338.271 C 447.531 337.1 448.189 335.945 448.849 334.912 C 449.507 333.879 450.759 331.965 451.423 330.759 C 452.083 329.55 453.447 327.206 453.806 326.467 C 454.167 325.725 456.653 320.765 456.868 320.258 C 457.081 319.75 458.272 316.388 458.272 316.388 C 458.272 316.388 455.401 321.903 455.222 322.188 C 455.046 322.465 452.744 325.902 452.022 326.853 C 451.307 327.8 449.622 330.005 448.941 330.852 C 448.266 331.701 446.657 333.702 445.707 334.669 C 444.756 335.641 442.335 337.543 442.134 337.635 C 441.939 337.729 440.839 338.462 440.606 338.484 C 440.369 338.504 439.407 338.216 439.28 338.109 C 439.153 338 438.833 337.268 438.729 337.167 C 438.629 337.066 438.281 336.325 438.248 336.074 C 438.212 335.823 438.315 334.199 438.381 333.933 C 438.445 333.658 438.804 332.92 439.134 332.108 C 439.463 331.292 439.381 331.379 439.773 330.59 C 440.168 329.803 440.389 329.241 440.782 328.453 C 441.176 327.666 441.261 327.406 441.836 326.46 C 442.413 325.513 442.833 324.855 443.225 324.248 C 443.615 323.637 443.862 323.206 444.459 322.446 C 445.053 321.684 445.427 321.185 445.926 320.62 C 446.422 320.059 446.611 319.897 447.082 319.324 C 447.561 318.749 448.907 317.287 449.448 316.743 C 449.991 316.197 452.331 314.035 452.753 313.446 C 453.18 312.848 461.03 304.427 461.527 303.913 C 462.018 303.401 467.801 297.655 468.39 296.923 C 468.977 296.19 472.619 291.604 472.983 291.032 C 473.345 290.468 477.99 283.277 478.25 282.755 C 478.504 282.245 480.315 278.337 480.376 278.205 C 480.426 278.081 480.815 277.219 480.815 277.219 C 480.815 277.219 479.322 279.561 479.028 280.054 C 478.73 280.557 476.628 283.623 475.939 284.628 C 475.26 285.623 470.76 291.391 470.298 291.966 C 469.835 292.544 468.012 294.509 467.271 295.22 C 466.53 295.937 464.795 297.423 464.261 297.921 C 463.732 298.42 463.317 298.813 461.794 300.227 C 460.275 301.641 457.39 304.187 456.172 305.164 C 455.76 305.494 454.812 306.332 453.715 307.32 C 451.551 309.268 448.807 311.798 448.451 312.16 C 447.913 312.706 439.691 322.415 439.636 322.498 C 439.586 322.58 435.987 327.948 435.851 328.154 C 435.722 328.36 431.889 334.658 431.776 334.871 C 431.664 335.082 429.274 339.268 429.22 339.395 C 429.159 339.525 426.333 344.912 426.303 344.959 C 426.279 344.997 420.408 355.892 420.408 355.892 C 420.408 355.892 417.529 360.798 417.151 361.356 C 416.77 361.914 413.305 367.194 413.04 367.495 C 412.774 367.798 410.625 369.674 410.467 369.811 C 410.309 369.949 409.205 370.259 409.017 370.336 C 408.824 370.41 408.034 369.307 408.034 369.205 C 408.027 369.102 408.697 366.609 408.672 366.494 C 408.649 366.381 409.466 364.876 409.645 364.487 C 409.826 364.1 412.089 359.554 412.412 358.97 C 412.735 358.388 414.385 355.741 414.798 355.094 C 415.214 354.444 417.133 351.55 417.577 350.856 C 418.012 350.171 420.664 346.398 420.858 346.017 C 421.051 345.637 423.86 341.468 424.202 340.897 C 424.547 340.322 426.555 336.948 426.864 336.361 C 427.171 335.772 428.689 332.761 428.849 332.211 C 429.012 331.661 429.136 330.016 429.136 330.016 C 429.136 330.016 428.018 332.992 427.908 333.203 C 427.797 333.414 426.755 335.234 426.315 336.028 C 425.883 336.821 424.739 339.274 422.848 341.458 C 420.951 343.648 417.687 347.825 417.561 347.982 C 417.441 348.134 414.876 350.812 414.671 350.984 C 414.468 351.152 412.731 352.791 412.402 353.013 C 412.071 353.234 411.112 354.066 410.947 354.099 C 410.782 354.132 409.47 354.815 409.451 354.806 C 409.431 354.798 408.78 354.632 408.76 354.624 C 408.741 354.616 408.638 353.337 408.538 353.299 C 408.447 353.26 408.487 351.638 408.541 351.403 C 408.597 351.17 409.761 347.856 409.915 347.51 C 410.064 347.163 411.39 344.533 411.894 343.711 C 412.39 342.893 414.305 340.049 415.045 339.074 C 415.787 338.102 416.603 337.006 417.51 335.588 C 418.417 334.171 418.999 333.182 419.572 332.29 C 420.139 331.392 420.972 330.207 421.593 328.976 C 422.215 327.747 422.631 326.944 423.14 325.926 C 423.646 324.909 424.297 323.484 424.574 322.83 C 424.851 322.173 425.504 320.855 425.669 320.41 C 425.833 319.967 426.188 319.034 426.407 318.362 C 426.631 317.681 427.169 315.905 427.241 315.575 C 427.308 315.245 427.586 313.771 427.586 313.771 C 427.586 313.771 425.536 317.682 425.365 318.024 C 425.198 318.365 422.496 323.294 422.257 323.706 C 422.017 324.123 420.251 327.287 419.811 327.978 C 419.372 328.666 415.257 334.696 414.837 335.242 C 414.42 335.787 412.875 337.604 412.443 338.098 C 412.017 338.58 408.816 342.583 408.224 343.364 C 407.63 344.143 405.835 346.731 405.282 347.523 C 404.724 348.318 402.753 351.295 402.563 351.624 C 402.373 351.958 399.535 357.294 399.419 357.549 C 399.299 357.808 399.09 358.694 398.779 359.44 C 398.472 360.183 397.369 362.497 396.962 363.402 C 396.549 364.307 395.894 365.884 395.435 366.976 C 394.975 368.066 394.423 369.376 394.175 369.989 C 393.924 370.605 393.393 371.767 393.141 372.384 C 392.889 373.002 392.244 374.42 391.825 375.221 C 391.409 376.021 390.726 377.28 390.34 377.991 C 389.955 378.703 389.319 379.923 388.703 380.849 C 388.086 381.774 387.824 382.223 386.963 383.458 C 386.105 384.69 385.524 385.421 384.903 386.088 C 384.29 386.755 383.448 387.59 382.625 388.322 C 381.799 389.056 380.272 390.107 379.59 390.542 C 378.908 390.977 377.986 391.568 377.576 391.652 C 377.164 391.739 376.285 390.857 376.142 390.595 C 376.003 390.329 375.793 388.804 375.809 388.145 C 375.826 387.485 376.326 384.818 376.498 383.913 C 376.673 383.012 380.036 375.74 380.147 375.531 C 380.257 375.323 382.698 371.723 383.752 370.261 C 384.804 368.8 385.615 367.75 386.787 366.031 C 387.956 364.315 389.705 361.762 390.245 360.804 C 390.787 359.846 391.494 358.815 392.141 357.54 C 392.789 356.271 392.922 356.174 393.497 354.824 C 394.082 353.473 394.293 352.949 394.677 351.978 C 395.061 351.01 395.09 350.919 395.614 349.547 C 396.14 348.174 396.143 348.123 396.608 346.879 C 397.067 345.636 397.467 344.57 397.663 344.034 C 397.862 343.502 399.384 340.496 400.467 338.685 C 401.55 336.879 401.828 336.332 402.248 335.787 C 402.667 335.242 403.694 334.235 404.449 333.315 C 405.197 332.397 405.129 332.468 405.978 331.543 C 406.833 330.612 407.292 330.194 407.736 329.761 C 408.179 329.33 408.522 329.01 408.932 328.673 C 409.337 328.327 409.466 328.281 409.772 327.992 C 410.068 327.706 410.554 326.986 410.353 327.005 C 410.149 327.023 408.886 327.777 408.376 328.128 C 407.865 328.484 405.413 329.866 404.442 330.799 C 403.468 331.726 403.106 332.141 402.24 333.013 C 401.375 333.885 401.123 333.987 400.328 335.192 C 399.534 336.396 399.184 336.87 398.516 338.027 C 397.844 339.187 397.329 339.995 396.624 341.246 C 395.925 342.488 395.768 342.732 395.215 343.785 C 394.662 344.838 394.206 345.622 393.711 346.546 C 393.214 347.47 393.073 347.769 392.43 348.885 C 391.788 350.005 391.956 349.664 391.129 351.218 C 390.299 352.773 390.433 352.978 389.032 355.319 C 387.63 357.656 387.565 357.839 386.36 359.645 C 385.161 361.45 384.282 362.265 384.086 362.495 C 383.895 362.723 382.937 363.967 382.65 364.307 C 382.355 364.65 381.735 365.467 381.219 366.02 C 380.698 366.577 380.577 366.834 379.982 367.4 C 379.377 367.975 378.796 368.548 378.432 368.709 C 378.071 368.867 377.161 368.843 377.057 368.854 C 376.959 368.861 376.645 368.163 376.633 367.96 C 376.627 367.746 376.435 367.155 376.536 366.739 C 376.641 366.318 376.724 366.149 376.705 365.881 C 376.681 365.617 376.662 365.505 376.747 365.183 C 376.838 364.856 377.045 363.565 377.246 363.03 C 377.447 362.497 377.434 362.442 377.752 361.905 C 378.073 361.367 378.161 361.153 378.561 360.602 C 378.962 360.048 378.977 359.95 379.395 359.408 C 379.811 358.866 379.899 358.694 380.222 358.26 C 380.545 357.833 380.818 357.59 380.909 357.369 C 381.001 357.151 381.202 356.873 380.67 357.374 C 380.139 357.872 380.104 357.856 379.589 358.36 C 379.08 358.863 379.274 358.637 378.267 359.76 C 377.265 360.882 376.466 362.092 376.041 362.579 C 375.61 363.064 374.837 364.128 374.177 365.085 C 373.519 366.041 373.35 366.378 372.984 366.84 C 372.619 367.303 372.543 367.533 371.911 368.296 C 371.281 369.057 371.324 369.073 370.461 370.155 C 369.608 371.232 369.196 371.728 368.66 372.38 C 368.129 373.029 366.642 374.978 366.441 375.15 C 366.233 375.322 366.233 375.322 365.975 375.573 C 365.723 375.825 365.654 375.901 365.401 376.103 C 365.153 376.304 364.859 376.696 364.626 376.65 C 364.395 376.604 363.426 376.711 363.111 376.684 C 362.795 376.656 362.335 376.668 362.307 376.605 C 362.276 376.544 362.02 375.868 361.971 375.493 C 361.93 375.113 361.899 374.897 361.916 374.39 C 361.934 373.885 361.818 373.99 361.93 373.37 C 362.045 372.748 361.937 372.652 362.02 372.226 C 362.107 371.796 362.131 371.756 362.376 371.04 C 362.618 370.323 362.63 370.273 362.938 369.529 C 363.244 368.785 363.15 368.794 363.61 367.96 C 364.069 367.129 364.183 366.917 364.635 366.133 C 365.088 365.346 365.544 364.561 365.91 363.947 C 366.286 363.328 366.386 363.167 367.008 362.196 C 367.632 361.219 367.381 361.425 368.22 360.337 C 369.055 359.252 369.371 359.022 370.212 357.886 C 371.055 356.748 371.118 356.62 372.077 355.376 C 373.035 354.138 375.764 351.169 376.73 350.029 C 377.696 348.89 379.853 346.658 381.169 344.9 C 382.484 343.14 382.531 343.211 383.741 341.507 C 384.947 339.807 384.809 340.057 385.877 338.349 C 386.948 336.636 390.487 331.287 391.237 330.113 C 391.987 328.937 392.473 328.214 393.008 327.154 C 393.542 326.098 393.824 325.394 394.347 324.43 C 394.864 323.466 395.223 322.947 395.796 321.643 C 396.367 320.345 396.735 319.576 397.157 318.626 C 397.575 317.669 397.795 317.249 398.006 316.511 C 398.212 315.777 397.955 315.927 397.59 316.647 C 397.223 317.366 397.311 317.302 396.499 318.759 C 395.682 320.217 395.498 320.547 394.533 322.247 C 393.561 323.949 393.305 324.353 392.611 325.397 C 391.921 326.445 391.504 327.094 390.762 328.223 C 390.017 329.349 389.794 329.918 388.939 331 C 388.08 332.082 388.261 331.95 387.397 332.928 C 386.536 333.905 386.644 333.844 385.779 334.608 C 384.904 335.376 385.026 335.373 384.063 336.256 C 383.096 337.132 383.003 337.353 382.313 337.577 C 381.621 337.806 381.275 338.278 381.065 338.084 C 380.854 337.894 380.897 337.605 380.784 337.299 C 380.67 336.993 380.59 336.604 380.823 335.98 C 381.05 335.358 381.449 334.699 382.255 333.291 C 383.059 331.881 383.062 331.989 383.819 330.659 C 384.569 329.332 384.847 328.783 385.595 327.504 C 386.342 326.221 386.318 326.26 386.949 325.348 C 387.587 324.431 387.771 324.1 388.318 323.507 C 388.862 322.912 389.018 322.82 389.586 322.339 C 390.153 321.861 390.34 321.786 390.607 321.483 C 390.871 321.181 390.695 321.159 390.36 321.277 C 390.023 321.398 390.202 321.261 389.66 321.704 C 389.119 322.145 388.588 322.228 388.087 322.789 C 387.581 323.357 387.172 323.59 387.003 323.781 C 386.838 323.968 385.886 325.008 385.646 325.312 C 385.398 325.621 385.109 325.964 384.771 326.491 C 384.436 327.021 382.98 329.03 382.629 329.549 C 382.271 330.069 379.92 333.6 379.709 333.929 C 379.504 334.25 379.562 334.272 379.084 334.945 C 378.606 335.621 378.28 336.204 377.919 336.77 C 377.556 337.336 377.309 337.904 376.784 338.658 C 376.254 339.412 376.956 338.422 375.51 340.538 C 374.06 342.656 373.994 342.729 373.662 343.208 C 373.335 343.684 371.999 345.694 371.719 345.986 C 371.435 346.279 371.459 346.396 371.138 346.674 C 370.821 346.948 370.876 346.975 370.576 347.154 C 370.262 347.333 370.257 347.277 369.995 347.425 C 369.734 347.575 365.956 350.51 365.248 351.141 C 364.536 351.771 364.097 352.045 363.21 353.217 C 362.319 354.383 361.752 355.125 360.329 357.096 C 358.898 359.068 358.191 360.104 357.072 361.742 C 355.954 363.382 355.964 363.434 354.861 364.978 C 353.754 366.519 352.781 367.753 352.231 368.5 C 351.683 369.247 351.629 369.225 350.642 370.656 C 349.649 372.092 347.14 375.458 346.133 377.04 C 345.121 378.623 344.347 379.687 343.127 381.742 C 341.909 383.799 340.454 386.219 339.274 388.144 C 338.097 390.061 337.627 390.791 336.387 392.736 C 335.14 394.68 333.428 397.25 332.653 398.62 C 331.871 399.99 331.731 400.39 329.804 403.336 C 327.874 406.279 327.832 406.308 326.367 408.522 C 324.906 410.738 324.811 410.847 323.889 412.215 C 322.972 413.574 323.098 413.418 322.289 414.571 C 321.484 415.722 321.031 416.356 320.732 416.746 C 320.437 417.132 389.887 443.476 389.887 443.476 L 405 419.305 Z"/>
  <path style="stroke-width: 0.15; paint-order: fill; fill: url(&quot;#gradient-6&quot;); transform-origin: -11.125px 226.61px;" d="M 49.573 155.896 C 49.573 155.896 45.813 144.921 51.401 137.47 C 54.836 132.89 59.047 127.519 62.19 125.306 C 70.635 119.361 64.751 121 73.419 116.15 C 82.708 110.953 86.095 111.853 87.848 109.66 C 89.594 107.461 83.568 116.181 81.6 120.42 C 79.637 124.655 78.011 131.192 78.295 131.192 C 78.582 131.19 78.52 132.808 78.726 133.271 C 78.93 133.729 78.583 133.876 79.601 134.33 C 80.615 134.78 81.879 134.769 82.074 134.629 C 82.27 134.491 84.225 133.533 84.304 133.43 C 84.383 133.327 87.692 130.3 87.745 130.253 C 87.795 130.209 89.576 127.995 89.654 127.893 C 89.733 127.793 91.501 125.327 91.628 125.149 C 91.754 124.968 93.356 122.23 93.506 121.998 C 93.652 121.762 94.626 120.021 94.946 119.435 C 95.266 118.843 96.588 116.366 96.851 115.823 C 97.12 115.281 98.226 112.861 98.427 112.392 C 98.632 111.921 100.512 106.208 100.901 105.092 C 101.293 103.98 102.175 98.585 102.205 98.306 C 102.234 98.027 102.429 95.215 102.531 94.711 C 102.638 94.211 103.084 91.881 103.162 91.495 C 103.24 91.11 105.041 82.899 105.357 81.81 C 105.671 80.721 106.618 77.735 107.163 76.267 C 107.707 74.793 108.843 71.865 109.379 70.617 C 109.915 69.371 110.513 68.195 110.984 67.094 C 111.46 65.997 112.312 63.942 112.954 62.726 C 113.6 61.512 114.786 59.104 115.22 58.389 C 115.651 57.673 118.49 52.836 118.813 52.366 C 119.138 51.898 121.475 48.939 121.475 48.939 C 121.475 48.939 118.404 54.386 118.27 54.689 C 118.145 54.982 116.657 58.709 116.318 59.795 C 115.975 60.876 115.193 63.401 114.922 64.393 C 114.644 65.382 114.002 67.727 113.835 68.97 C 113.661 70.218 113.793 73.022 113.868 73.212 C 113.937 73.398 114.126 74.588 114.299 74.753 C 114.474 74.919 115.559 75.354 115.77 75.368 C 115.982 75.379 116.975 75.109 117.161 75.111 C 117.342 75.108 118.365 74.853 118.638 74.711 C 118.916 74.57 120.437 73.447 120.646 73.232 C 120.862 73.01 121.293 72.298 121.823 71.554 C 122.36 70.813 122.342 70.922 122.794 70.156 C 123.244 69.386 123.616 68.878 124.069 68.11 C 124.521 67.341 124.707 67.119 125.164 66.131 C 125.62 65.142 125.923 64.44 126.197 63.792 C 126.479 63.143 126.699 62.702 126.956 61.82 C 127.215 60.941 127.396 60.374 127.541 59.682 C 127.685 58.997 127.688 58.77 127.861 58.091 C 128.034 57.408 128.361 55.585 128.45 54.881 C 128.54 54.174 128.734 51.252 128.966 50.594 C 129.202 49.931 131.007 39.368 131.102 38.713 C 131.202 38.062 132.08 30.578 132.314 29.722 C 132.553 28.865 134.062 23.523 134.326 22.916 C 134.582 22.314 137.836 14.627 138.133 14.119 C 138.428 13.624 140.789 9.903 140.87 9.779 C 140.949 9.668 141.478 8.857 141.478 8.857 C 141.478 8.857 140.401 11.351 140.158 11.858 C 139.909 12.378 138.622 15.734 138.201 16.833 C 137.784 17.922 135.816 24.587 135.632 25.261 C 135.445 25.937 135.018 28.395 134.928 29.337 C 134.835 30.284 134.806 32.373 134.754 33.043 C 134.706 33.711 134.66 34.235 134.525 36.14 C 134.388 38.044 134.269 41.569 134.315 42.993 C 134.362 44.421 133.902 51.84 133.809 52.543 C 133.717 53.246 130.946 64.886 130.908 64.976 C 130.868 65.06 128.55 70.884 128.458 71.107 C 128.364 71.323 125.32 77.903 125.202 78.114 C 125.088 78.324 122.934 82.596 122.855 82.715 C 122.776 82.839 119.796 88.174 119.775 88.223 C 119.756 88.265 113.862 99.154 113.862 99.154 C 113.862 99.154 111.4 104.21 111.163 104.82 C 110.926 105.429 108.587 111.108 108.508 111.475 C 108.429 111.846 108.358 114.457 108.355 114.646 C 108.35 114.84 108.96 115.756 109.04 115.929 C 109.126 116.102 110.872 115.893 110.974 115.827 C 111.083 115.764 112.99 113.709 113.125 113.65 C 113.255 113.591 114.065 112.082 114.302 111.713 C 114.533 111.344 117.148 106.922 117.457 106.332 C 117.762 105.745 119.013 102.954 119.31 102.265 C 119.605 101.572 120.875 98.447 121.19 97.708 C 121.506 96.982 123.033 92.81 123.251 92.435 C 123.465 92.062 125.253 87.533 125.536 86.939 C 125.817 86.341 127.485 82.845 127.808 82.264 C 128.135 81.681 129.853 78.74 130.264 78.278 C 130.67 77.815 132.194 76.663 132.194 76.663 C 132.194 76.663 130.18 79.324 130.063 79.532 C 129.945 79.741 129.013 81.601 128.593 82.402 C 128.169 83.198 126.695 85.535 126.106 88.181 C 125.514 90.832 124.095 95.664 124.044 95.847 C 123.994 96.023 123.477 99.427 123.477 99.673 C 123.478 99.912 123.301 102.103 123.355 102.462 C 123.412 102.82 123.387 103.981 123.488 104.11 C 123.594 104.239 124.008 105.531 124.033 105.538 C 124.057 105.545 124.764 105.858 124.786 105.867 C 124.811 105.873 126.16 105.108 126.279 105.148 C 126.394 105.18 127.965 104.1 128.152 103.912 C 128.338 103.725 130.645 100.813 130.861 100.489 C 131.08 100.167 132.58 97.595 132.974 96.736 C 133.371 95.881 134.592 92.792 134.941 91.677 C 135.287 90.566 135.691 89.323 136.34 87.813 C 136.986 86.304 137.481 85.284 137.889 84.331 C 138.305 83.381 138.786 82.07 139.487 80.866 C 140.185 79.664 140.634 78.873 141.218 77.881 C 141.804 76.891 142.672 75.543 143.088 74.937 C 143.507 74.33 144.268 73.05 144.571 72.653 C 144.871 72.258 145.499 71.422 145.984 70.842 C 146.471 70.253 147.778 68.75 148.044 68.49 C 148.318 68.231 149.542 67.091 149.542 67.091 C 149.542 67.091 147.379 70.964 147.182 71.298 C 146.984 71.627 144.355 76.585 144.146 77.007 C 143.932 77.434 142.27 80.637 141.953 81.369 C 141.636 82.102 139.092 88.69 138.902 89.318 C 138.71 89.942 138.195 92.125 138.068 92.726 C 137.943 93.316 136.645 97.993 136.362 98.883 C 136.087 99.774 135.019 102.62 134.693 103.496 C 134.372 104.373 133.067 107.586 132.899 107.923 C 132.725 108.263 129.807 113.573 129.651 113.816 C 129.496 114.06 128.793 114.773 128.314 115.459 C 127.835 116.141 126.461 118.362 125.905 119.215 C 125.354 120.072 124.339 121.522 123.639 122.528 C 122.946 123.534 122.109 124.746 121.708 125.306 C 121.307 125.869 120.6 126.968 120.2 127.533 C 119.798 128.099 118.93 129.441 118.486 130.231 C 118.042 131.021 117.364 132.283 116.983 132.995 C 116.596 133.708 115.917 134.915 115.515 135.916 C 115.113 136.916 114.887 137.379 114.379 138.739 C 113.875 140.097 113.635 140.95 113.491 141.786 C 113.342 142.616 113.215 143.703 113.173 144.714 C 113.133 145.724 113.363 147.396 113.498 148.121 C 113.636 148.845 113.818 149.828 114.074 150.148 C 114.331 150.469 115.934 150.467 116.311 150.387 C 116.689 150.304 118.375 149.448 119.011 149.008 C 119.651 148.568 121.872 146.507 122.624 145.809 C 123.369 145.107 127.765 138.199 127.88 137.99 C 127.995 137.785 129.526 133.86 130.097 132.226 C 130.666 130.596 131.03 129.387 131.76 127.51 C 132.485 125.637 133.555 122.842 134.054 121.87 C 134.552 120.897 134.984 119.768 135.708 118.519 C 136.422 117.275 136.41 117.124 137.265 115.874 C 138.116 114.615 138.46 114.138 139.099 113.257 C 139.737 112.378 139.802 112.3 140.726 111.068 C 141.647 109.835 141.693 109.801 142.538 108.689 C 143.383 107.582 144.106 106.63 144.472 106.153 C 144.833 105.679 146.543 102.738 147.433 100.858 C 148.319 98.982 148.631 98.446 148.819 97.819 C 149.011 97.194 149.154 95.874 149.436 94.788 C 149.721 93.703 149.708 93.794 149.917 92.642 C 150.128 91.484 150.161 90.913 150.221 90.345 C 150.278 89.777 150.308 89.349 150.303 88.863 C 150.307 88.376 150.247 88.262 150.279 87.877 C 150.315 87.5 150.622 86.716 150.772 86.858 C 150.923 87.001 151.226 88.309 151.304 88.867 C 151.376 89.431 152.044 91.917 151.931 93.153 C 151.821 94.387 151.711 94.89 151.57 96.018 C 151.425 97.147 151.535 97.376 151.003 98.675 C 150.472 99.972 150.292 100.506 149.704 101.693 C 149.115 102.883 148.745 103.741 148.092 105.011 C 147.447 106.273 147.335 106.533 146.754 107.578 C 146.171 108.619 145.775 109.425 145.27 110.347 C 144.771 111.269 144.594 111.555 144.024 112.698 C 143.45 113.842 143.648 113.512 142.795 115.058 C 141.948 116.608 141.635 116.655 140.486 119.086 C 139.338 121.514 139.213 121.675 138.425 123.629 C 137.637 125.582 137.559 126.68 137.497 126.955 C 137.431 127.228 136.997 128.659 136.899 129.064 C 136.805 129.479 136.511 130.412 136.393 131.106 C 136.275 131.806 136.121 132.051 136.056 132.805 C 135.99 133.57 135.906 134.32 136.048 134.659 C 136.193 134.997 136.971 135.569 137.047 135.644 C 137.121 135.712 138.073 135.461 138.283 135.337 C 138.498 135.2 139.242 134.939 139.571 134.604 C 139.901 134.264 139.998 134.099 140.28 133.937 C 140.559 133.779 140.685 133.719 140.936 133.454 C 141.182 133.184 142.285 132.208 142.648 131.731 C 143.008 131.255 143.075 131.226 143.34 130.671 C 143.606 130.112 143.744 129.916 143.957 129.3 C 144.169 128.679 144.255 128.605 144.444 127.982 C 144.635 127.361 144.732 127.192 144.89 126.7 C 145.046 126.212 145.059 125.878 145.202 125.675 C 145.342 125.473 145.449 125.163 145.396 125.832 C 145.345 126.502 145.391 126.511 145.32 127.174 C 145.244 127.831 145.306 127.558 145.033 128.94 C 144.756 130.321 144.222 131.624 144.096 132.217 C 143.971 132.811 143.562 134.004 143.164 135.054 C 142.766 136.103 142.572 136.431 142.418 136.969 C 142.266 137.507 142.102 137.706 141.873 138.61 C 141.641 139.513 141.592 139.496 141.237 140.76 C 140.881 142.013 140.731 142.602 140.534 143.373 C 140.333 144.14 139.641 146.368 139.637 146.611 C 139.641 146.857 139.641 146.857 139.607 147.188 C 139.566 147.515 139.55 147.611 139.558 147.906 C 139.566 148.197 139.421 148.641 139.662 148.762 C 139.901 148.882 140.599 149.579 140.886 149.764 C 141.177 149.952 141.546 150.257 141.632 150.234 C 141.718 150.214 142.6 149.94 143.01 149.725 C 143.421 149.507 143.659 149.385 144.144 149.045 C 144.631 148.705 144.623 148.847 145.144 148.371 C 145.665 147.894 145.847 147.9 146.2 147.568 C 146.553 147.232 146.573 147.191 147.078 146.566 C 147.584 145.943 147.627 145.903 148.104 145.219 C 148.585 144.537 148.656 144.604 149.098 143.764 C 149.538 142.925 149.653 142.713 150.052 141.911 C 150.455 141.106 150.851 140.299 151.154 139.663 C 151.455 139.017 151.531 138.847 151.974 137.812 C 152.42 136.772 152.427 137.068 152.807 135.817 C 153.185 134.572 153.151 134.219 153.575 132.932 C 153.999 131.648 154.075 131.524 154.507 130.092 C 154.935 128.667 155.605 124.969 155.93 123.602 C 156.253 122.236 156.667 119.387 157.314 117.392 C 157.963 115.395 157.853 115.41 158.531 113.519 C 159.213 111.63 159.079 111.883 159.882 110.08 C 160.686 108.272 163.034 102.5 163.572 101.25 C 164.112 100 164.424 99.215 165.029 98.179 C 165.627 97.146 166.09 96.505 166.609 95.537 C 167.133 94.578 167.349 94.007 168.16 92.787 C 168.968 91.573 169.424 90.835 170.015 89.943 C 170.613 89.049 170.844 88.633 171.399 88.017 C 171.953 87.404 172.018 87.669 171.609 88.374 C 171.205 89.079 171.193 88.982 170.428 90.454 C 169.664 91.931 169.491 92.267 168.612 93.997 C 167.736 95.734 167.55 96.163 167.094 97.291 C 166.632 98.42 166.335 99.112 165.836 100.329 C 165.34 101.543 164.963 102.057 164.604 103.315 C 164.249 104.575 164.228 104.373 163.979 105.568 C 163.726 106.761 163.698 106.652 163.662 107.709 C 163.626 108.774 163.531 108.693 163.456 109.892 C 163.393 111.087 163.252 111.293 163.604 111.884 C 163.955 112.481 163.773 113.012 164.138 113.021 C 164.503 113.035 164.754 112.818 165.149 112.693 C 165.545 112.566 165.997 112.365 166.421 111.809 C 166.846 111.257 167.167 110.57 167.89 109.132 C 168.615 107.694 168.508 107.762 169.194 106.407 C 169.883 105.057 170.192 104.518 170.837 103.203 C 171.485 101.884 171.467 101.926 171.842 100.924 C 172.222 99.913 172.395 99.579 172.529 98.841 C 172.664 98.101 172.626 97.94 172.63 97.259 C 172.633 96.581 172.548 96.411 172.627 96.042 C 172.707 95.674 172.874 95.774 173.037 96.067 C 173.198 96.364 173.182 96.159 173.197 96.797 C 173.211 97.434 173.568 97.832 173.43 98.521 C 173.288 99.219 173.396 99.636 173.348 99.868 C 173.302 100.098 173.064 101.39 172.963 101.744 C 172.863 102.106 172.761 102.515 172.523 103.077 C 172.278 103.639 171.498 105.889 171.279 106.453 C 171.06 107.024 169.524 110.843 169.372 111.193 C 169.225 111.537 169.155 111.512 168.886 112.261 C 168.615 113.009 168.31 113.598 168.05 114.201 C 167.791 114.806 167.436 115.334 167.127 116.164 C 166.819 116.998 167.219 115.901 166.326 118.213 C 165.436 120.529 165.42 120.619 165.221 121.148 C 165.021 121.668 164.145 123.84 164.088 124.212 C 164.033 124.585 163.899 124.649 163.888 125.035 C 163.883 125.421 163.812 125.403 163.883 125.714 C 163.965 126.032 164.024 125.999 164.096 126.264 C 164.167 126.532 164.401 130.886 164.365 131.756 C 164.333 132.627 164.426 133.087 164.005 134.425 C 163.592 135.761 163.33 136.611 162.563 138.815 C 161.8 141.024 161.365 142.156 160.671 143.947 C 159.98 145.735 159.92 145.764 159.31 147.485 C 158.705 149.203 158.294 150.637 158.014 151.478 C 157.73 152.318 157.796 152.34 157.203 153.91 C 156.604 155.487 155.361 159.303 154.634 160.984 C 153.909 162.668 153.5 163.862 152.481 165.989 C 151.459 168.115 150.272 170.632 149.35 172.648 C 148.433 174.657 148.103 175.437 147.208 177.505 C 146.321 179.578 145.204 182.359 144.494 183.753 C 143.788 185.15 143.509 185.5 142.197 188.664 C 140.889 191.83 140.897 191.876 139.921 194.266 C 138.945 196.654 138.916 196.785 138.328 198.272 C 137.747 199.751 137.799 199.567 137.33 200.841 C 136.86 202.11 136.609 202.816 136.471 203.264 C 136.336 203.705 52.617 175.914 52.617 175.914 L 49.573 155.896 Z"/>
  <path style="stroke-width: 0.15; paint-order: fill; fill: url(&quot;#gradient-5&quot;); transform-origin: 328.556px 513.233px;" d="M 395.609 430.925 C 395.609 430.925 403.048 416.763 408.76 408.944 C 414.47 401.132 412.47 404.088 418.157 396.999 C 423.846 389.906 421.309 393.936 423.174 391.832 C 425.035 389.725 418.389 398.088 415.942 402.158 C 413.503 406.222 410.883 412.507 411.114 412.508 C 411.352 412.507 410.981 414.062 411.058 414.509 C 411.135 414.949 410.823 415.091 411.568 415.531 C 412.305 415.969 413.344 415.964 413.53 415.832 C 413.717 415.697 415.505 414.785 415.588 414.686 C 415.673 414.588 418.977 411.691 419.029 411.645 C 419.079 411.603 420.972 409.482 421.055 409.383 C 421.141 409.287 423.07 406.92 423.212 406.751 C 423.351 406.577 425.199 403.95 425.367 403.728 C 425.535 403.501 426.673 401.83 427.05 401.269 C 427.431 400.7 428.996 398.322 429.322 397.803 C 429.648 397.282 431.028 394.957 431.285 394.508 C 431.546 394.055 434.211 388.567 434.747 387.496 C 435.287 386.427 437.071 381.241 437.153 380.973 C 437.229 380.705 437.942 378 438.127 377.514 C 438.313 377.035 439.138 374.796 439.275 374.424 C 439.417 374.054 442.507 366.162 442.98 365.116 C 443.453 364.069 444.815 361.199 445.55 359.791 C 446.286 358.375 447.794 355.563 448.476 354.364 C 449.161 353.168 449.881 352.038 450.483 350.983 C 451.089 349.929 452.191 347.954 452.955 346.788 C 453.722 345.622 455.166 343.311 455.663 342.626 C 456.158 341.939 459.432 337.298 459.789 336.848 C 460.146 336.397 462.641 333.561 462.641 333.561 C 462.641 333.561 459.057 338.79 458.888 339.078 C 458.725 339.36 456.775 342.939 456.284 343.984 C 455.79 345.021 454.654 347.447 454.236 348.4 C 453.816 349.351 452.826 351.603 452.444 352.799 C 452.058 354 451.612 356.697 451.635 356.881 C 451.656 357.061 451.574 358.206 451.684 358.365 C 451.793 358.525 452.596 358.95 452.767 358.964 C 452.937 358.975 453.802 358.719 453.955 358.723 C 454.103 358.72 454.989 358.478 455.241 358.344 C 455.496 358.21 456.961 357.134 457.175 356.929 C 457.397 356.717 457.889 356.034 458.47 355.32 C 459.053 354.608 459.017 354.714 459.536 353.978 C 460.059 353.242 460.461 352.753 460.985 352.016 C 461.504 351.279 461.701 351.066 462.268 350.118 C 462.838 349.166 463.223 348.494 463.575 347.872 C 463.933 347.249 464.2 346.825 464.583 345.978 C 464.97 345.133 465.23 344.588 465.483 343.924 C 465.737 343.265 465.785 343.046 466.061 342.395 C 466.337 341.737 466.964 339.984 467.174 339.307 C 467.386 338.628 468.123 335.819 468.441 335.187 C 468.766 334.549 472.323 324.394 472.53 323.765 C 472.741 323.14 474.933 315.944 475.293 315.12 C 475.658 314.297 477.943 309.164 478.281 308.581 C 478.608 308.004 482.783 300.621 483.128 300.135 C 483.467 299.659 486.129 296.094 486.218 295.973 C 486.307 295.866 486.9 295.085 486.9 295.085 C 486.9 295.085 485.53 297.477 485.23 297.968 C 484.922 298.467 483.21 301.69 482.647 302.746 C 482.092 303.792 479.17 310.196 478.885 310.842 C 478.6 311.492 477.765 313.854 477.507 314.761 C 477.244 315.673 476.807 317.681 476.635 318.327 C 476.462 318.968 476.322 319.473 475.837 321.306 C 475.349 323.136 474.557 326.527 474.313 327.897 C 474.072 329.271 472.231 336.406 472.017 337.082 C 471.802 337.758 467.244 348.944 467.196 349.031 C 467.147 349.113 464.102 354.706 463.983 354.918 C 463.863 355.127 460.077 361.445 459.937 361.647 C 459.804 361.848 457.199 365.949 457.11 366.062 C 457.023 366.181 453.535 371.302 453.508 371.349 C 453.485 371.387 446.518 381.84 446.518 381.84 C 446.518 381.84 443.508 386.693 443.193 387.278 C 442.88 387.863 439.845 393.316 439.711 393.668 C 439.575 394.025 438.999 396.536 438.961 396.72 C 438.916 396.905 439.235 397.789 439.267 397.956 C 439.304 398.122 440.773 397.93 440.871 397.867 C 440.971 397.807 442.936 395.838 443.058 395.781 C 443.175 395.726 444.136 394.278 444.401 393.924 C 444.663 393.57 447.672 389.325 448.042 388.76 C 448.409 388.196 449.98 385.516 450.358 384.855 C 450.738 384.19 452.391 381.189 452.796 380.479 C 453.196 379.782 455.269 375.775 455.519 375.416 C 455.767 375.058 458.124 370.707 458.47 370.137 C 458.82 369.565 460.873 366.207 461.253 365.65 C 461.636 365.092 463.617 362.269 464.045 361.826 C 464.469 361.381 465.942 360.28 465.942 360.28 C 465.942 360.28 463.772 362.832 463.633 363.032 C 463.497 363.232 462.368 365.017 461.867 365.787 C 461.362 366.55 459.696 368.792 458.692 371.335 C 457.687 373.883 455.573 378.527 455.496 378.702 C 455.419 378.871 454.328 382.143 454.279 382.379 C 454.232 382.61 453.654 384.717 453.629 385.062 C 453.604 385.407 453.356 386.524 453.413 386.649 C 453.474 386.773 453.558 388.019 453.576 388.025 C 453.594 388.031 454.111 388.336 454.128 388.345 C 454.146 388.351 455.401 387.62 455.491 387.659 C 455.58 387.691 457.077 386.658 457.266 386.479 C 457.454 386.298 459.915 383.508 460.156 383.196 C 460.399 382.888 462.13 380.42 462.623 379.595 C 463.116 378.774 464.724 375.808 465.229 374.737 C 465.731 373.669 466.308 372.475 467.135 371.025 C 467.963 369.577 468.568 368.598 469.088 367.683 C 469.616 366.77 470.267 365.511 471.077 364.357 C 471.887 363.203 472.409 362.443 473.082 361.493 C 473.756 360.541 474.732 359.248 475.191 358.668 C 475.654 358.085 476.528 356.856 476.854 356.478 C 477.177 356.098 477.855 355.297 478.367 354.742 C 478.88 354.177 480.248 352.737 480.517 352.487 C 480.787 352.238 482.016 351.148 482.016 351.148 C 482.016 351.148 479.484 354.865 479.255 355.185 C 479.031 355.501 475.902 360.258 475.648 360.663 C 475.389 361.074 473.401 364.147 472.994 364.851 C 472.594 365.555 469.212 371.881 468.932 372.484 C 468.654 373.084 467.802 375.181 467.579 375.76 C 467.361 376.327 465.377 380.819 464.973 381.676 C 464.571 382.532 463.137 385.266 462.698 386.107 C 462.261 386.949 460.56 390.036 460.357 390.358 C 460.148 390.685 456.715 395.78 456.54 396.012 C 456.364 396.248 455.648 396.93 455.122 397.589 C 454.597 398.243 453.034 400.372 452.412 401.19 C 451.792 402.012 450.677 403.403 449.905 404.369 C 449.14 405.334 448.216 406.495 447.778 407.034 C 447.34 407.573 446.544 408.628 446.106 409.168 C 445.665 409.712 444.693 410.998 444.174 411.757 C 443.655 412.517 442.852 413.727 442.399 414.41 C 441.941 415.095 441.15 416.251 440.623 417.214 C 440.096 418.175 439.82 418.619 439.138 419.925 C 438.457 421.229 438.094 422.047 437.81 422.851 C 437.524 423.649 437.207 424.696 436.974 425.668 C 436.742 426.64 436.601 428.25 436.568 428.947 C 436.537 429.644 436.493 430.59 436.64 430.9 C 436.784 431.211 438.097 431.214 438.421 431.139 C 438.746 431.06 440.293 430.245 440.9 429.824 C 441.507 429.401 443.733 427.432 444.484 426.761 C 445.233 426.091 450.189 419.462 450.325 419.262 C 450.457 419.064 452.484 415.297 453.273 413.727 C 454.06 412.16 454.595 411 455.56 409.196 C 456.524 407.398 457.952 404.715 458.551 403.781 C 459.148 402.846 459.725 401.763 460.562 400.564 C 461.393 399.369 461.412 399.226 462.359 398.026 C 463.303 396.819 463.678 396.361 464.374 395.516 C 465.07 394.674 465.139 394.599 466.134 393.417 C 467.133 392.235 467.177 392.201 468.087 391.136 C 468.997 390.076 469.775 389.162 470.169 388.705 C 470.558 388.251 472.536 385.428 473.634 383.624 C 474.73 381.822 475.088 381.308 475.365 380.705 C 475.645 380.104 476.022 378.835 476.467 377.791 C 476.915 376.751 476.887 376.838 477.284 375.73 C 477.685 374.617 477.825 374.067 477.984 373.522 C 478.145 372.975 478.254 372.563 478.345 372.096 C 478.444 371.627 478.418 371.517 478.519 371.148 C 478.625 370.785 479.031 370.031 479.122 370.168 C 479.218 370.308 479.21 371.566 479.16 372.105 C 479.11 372.646 479.167 375.042 478.831 376.231 C 478.497 377.417 478.309 377.901 477.97 378.985 C 477.629 380.071 477.674 380.291 476.982 381.538 C 476.291 382.784 476.042 383.297 475.326 384.436 C 474.61 385.579 474.137 386.403 473.354 387.622 C 472.577 388.833 472.434 389.083 471.754 390.086 C 471.07 391.085 470.588 391.858 469.994 392.744 C 469.404 393.628 469.203 393.902 468.512 395.001 C 467.816 396.097 468.044 395.781 467.044 397.265 C 466.044 398.752 465.778 398.795 464.358 401.13 C 462.942 403.461 462.808 403.615 461.777 405.493 C 460.748 407.367 460.47 408.424 460.361 408.688 C 460.256 408.95 459.62 410.324 459.457 410.715 C 459.299 411.112 458.875 412.008 458.644 412.675 C 458.408 413.35 458.235 413.584 458.031 414.31 C 457.828 415.046 457.612 415.767 457.659 416.094 C 457.712 416.419 458.236 416.973 458.283 417.044 C 458.332 417.111 459.158 416.873 459.355 416.755 C 459.559 416.625 460.217 416.377 460.551 416.055 C 460.888 415.728 461.001 415.571 461.263 415.416 C 461.523 415.267 461.638 415.21 461.895 414.956 C 462.148 414.696 463.245 413.762 463.635 413.305 C 464.024 412.849 464.084 412.821 464.408 412.288 C 464.737 411.752 464.888 411.564 465.185 410.971 C 465.481 410.375 465.565 410.304 465.843 409.706 C 466.122 409.109 466.236 408.946 466.46 408.474 C 466.682 408.006 466.76 407.684 466.916 407.49 C 467.07 407.296 467.221 406.998 467.045 407.642 C 466.871 408.285 466.905 408.296 466.718 408.932 C 466.527 409.565 466.632 409.302 466.134 410.629 C 465.637 411.957 464.943 413.209 464.722 413.778 C 464.504 414.351 463.934 415.496 463.402 416.503 C 462.871 417.511 462.646 417.827 462.415 418.343 C 462.185 418.859 462.01 419.05 461.647 419.92 C 461.278 420.787 461.239 420.771 460.702 421.985 C 460.163 423.188 459.925 423.754 459.613 424.497 C 459.295 425.233 458.291 427.374 458.24 427.607 C 458.194 427.844 458.194 427.844 458.102 428.162 C 458.003 428.476 457.97 428.567 457.92 428.853 C 457.869 429.133 457.663 429.56 457.835 429.677 C 458.007 429.793 458.441 430.467 458.639 430.646 C 458.84 430.828 459.083 431.123 459.158 431.102 C 459.233 431.083 460.006 430.823 460.385 430.618 C 460.763 430.41 460.983 430.293 461.448 429.969 C 461.91 429.644 461.875 429.781 462.397 429.325 C 462.915 428.867 463.064 428.874 463.418 428.559 C 463.772 428.236 463.797 428.196 464.333 427.596 C 464.87 427 464.912 426.96 465.438 426.304 C 465.967 425.651 466.011 425.715 466.538 424.91 C 467.063 424.105 467.199 423.9 467.683 423.13 C 468.171 422.357 468.654 421.583 469.028 420.972 C 469.401 420.352 469.496 420.188 470.064 419.195 C 470.633 418.199 470.581 418.483 471.137 417.282 C 471.693 416.083 471.733 415.743 472.333 414.508 C 472.935 413.274 473.019 413.155 473.657 411.78 C 474.288 410.411 475.565 406.856 476.099 405.542 C 476.635 404.229 477.532 401.491 478.456 399.573 C 479.38 397.655 479.286 397.669 480.215 395.852 C 481.142 394.038 480.983 394.282 481.996 392.55 C 483.01 390.813 486.067 385.271 486.753 384.071 C 487.444 382.87 487.851 382.117 488.55 381.122 C 489.245 380.131 489.748 379.517 490.363 378.589 C 490.982 377.668 491.27 377.118 492.176 375.948 C 493.077 374.784 493.592 374.075 494.252 373.22 C 494.918 372.364 495.188 371.965 495.765 371.373 C 496.338 370.787 496.339 371.042 495.866 371.719 C 495.396 372.397 495.404 372.3 494.489 373.714 C 493.573 375.132 493.364 375.454 492.304 377.116 C 491.247 378.782 491.01 379.195 490.415 380.278 C 489.814 381.363 489.436 382.027 488.787 383.195 C 488.144 384.36 487.732 384.854 487.191 386.063 C 486.651 387.273 486.676 387.078 486.235 388.226 C 485.795 389.372 485.792 389.268 485.554 390.286 C 485.316 391.309 485.253 391.23 484.956 392.384 C 484.669 393.535 484.511 393.729 484.685 394.301 C 484.854 394.877 484.6 395.388 484.898 395.398 C 485.192 395.411 485.439 395.205 485.788 395.086 C 486.136 394.967 486.547 394.775 487.003 394.242 C 487.459 393.713 487.857 393.052 488.73 391.672 C 489.608 390.292 489.507 390.356 490.336 389.056 C 491.163 387.761 491.525 387.244 492.311 385.982 C 493.099 384.715 493.077 384.755 493.581 383.792 C 494.092 382.823 494.3 382.502 494.553 381.791 C 494.811 381.079 494.811 380.925 494.948 380.271 C 495.084 379.617 495.048 379.454 495.185 379.1 C 495.323 378.746 495.441 378.842 495.515 379.124 C 495.59 379.412 495.617 379.214 495.503 379.829 C 495.386 380.442 495.601 380.826 495.353 381.489 C 495.099 382.158 495.106 382.56 495.022 382.784 C 494.94 383.004 494.488 384.248 494.337 384.587 C 494.183 384.934 494.019 385.328 493.713 385.867 C 493.402 386.407 492.322 388.568 492.03 389.11 C 491.742 389.657 489.73 393.325 489.537 393.663 C 489.35 393.991 489.297 393.969 488.93 394.685 C 488.561 395.406 488.195 395.972 487.865 396.549 C 487.532 397.131 487.139 397.637 486.721 398.435 C 486.307 399.237 486.848 398.181 485.664 400.403 C 484.478 402.629 484.448 402.714 484.18 403.22 C 483.915 403.722 482.77 405.807 482.649 406.164 C 482.532 406.524 482.41 406.584 482.326 406.956 C 482.245 407.326 482.189 407.307 482.186 407.608 C 482.191 407.915 482.247 407.884 482.253 408.14 C 482.256 408.396 481.59 412.587 481.389 413.423 C 481.192 414.261 481.177 414.706 480.57 415.99 C 479.969 417.273 479.585 418.089 478.525 420.207 C 477.466 422.328 476.885 423.415 475.968 425.136 C 475.049 426.853 474.994 426.881 474.155 428.533 C 473.322 430.183 472.703 431.562 472.308 432.37 C 471.91 433.177 471.96 433.198 471.166 434.707 C 470.364 436.221 468.597 439.886 467.671 441.5 C 466.746 443.117 466.176 444.264 464.924 446.307 C 463.669 448.347 462.204 450.763 461.052 452.7 C 459.904 454.63 459.48 455.376 458.343 457.363 C 457.207 459.352 455.746 462.023 454.889 463.361 C 454.038 464.703 453.74 465.039 452.043 468.078 C 450.351 471.117 450.346 471.161 449.079 473.456 C 447.81 475.748 447.76 475.876 446.987 477.304 C 446.22 478.722 446.296 478.548 445.663 479.769 C 445.029 480.991 444.685 481.669 444.483 482.1 C 444.284 482.523 381.301 455.421 381.301 455.421 L 395.609 430.925 Z"/>
  <text style="fill: url(&quot;#gradient-0&quot;); font-family: &quot;Cambria Math&quot;; font-size: 13.9239px; font-weight: 700; line-height: 22.2783px; white-space: pre; transform-box: fill-box; transform-origin: 49.8497% 49.2672%;" transform="matrix(51.708347, 0, 0, 33.338703, 151.452927, 49.083824)" x="59.702" y="303.775" dx="-1.292" dy="2.203">R</text>
</svg>